<svg width="26" height="40" viewBox="0 0 26 40" fill="none" xmlns="http://www.w3.org/2000/svg">
<path d="M22.5064 39.3728H2.69937C1.62144 39.3728 0.747559 38.499 0.747559 37.421V2.57827C0.747559 1.50035 1.62144 0.626465 2.69937 0.626465H22.5061C23.5841 0.626465 24.458 1.50035 24.458 2.57827V37.421C24.458 38.499 23.5843 39.3728 22.5064 39.3728Z" fill="#7BABF3"/>
<path d="M19.9835 10.3227C17.9266 8.37407 14.2542 9.36649 13.0203 9.77834C12.7491 9.86887 12.4569 9.86887 12.1855 9.77834C10.9516 9.3667 7.27921 8.37407 5.22225 10.3227C1.85028 13.286 4.23464 17.7576 5.46539 19.6045C5.85801 20.1936 6.07271 20.8816 6.09529 21.5891C6.22596 25.679 7.04903 29.5878 8.31261 29.5878C9.69346 29.5878 9.82476 28.0098 9.82476 24.488C9.82476 22.8136 10.4526 21.8182 11.1113 21.2348C11.9568 20.4861 13.2486 20.4861 14.094 21.2348C14.7528 21.8182 15.3806 22.8136 15.3806 24.488C15.3806 28.0098 15.5121 29.5878 16.8929 29.5878C18.1565 29.5878 18.9794 25.679 19.1103 21.5891C19.1328 20.8816 19.3476 20.1936 19.7402 19.6045C20.9711 17.7574 23.3555 13.2858 19.9835 10.3227Z" fill="white"/>
<path d="M0.748535 33.6587V37.4212C0.748535 38.4991 1.62242 39.373 2.70034 39.373H22.5071C23.5851 39.373 24.4589 38.4991 24.4589 37.4212V33.6587H0.748535Z" fill="#D5E6F7"/>
<path d="M14.7087 4.25063H10.4973C9.53775 4.25063 8.67432 3.66818 8.31515 2.77841L7.44629 0.626953H17.76L16.8911 2.77841C16.5317 3.66798 15.6683 4.25063 14.7087 4.25063Z" fill="#D5E6F7"/>
<path d="M19.984 10.3222C18.8026 9.20286 17.0885 9.05463 15.6094 9.2085C16.5453 9.32286 17.4564 9.64419 18.1721 10.3222C21.544 13.2854 19.1597 17.7571 17.9289 19.6039C17.5363 20.1931 17.3218 20.8809 17.299 21.5885C17.1982 24.7441 16.6848 27.79 15.8755 29.0178C16.1 29.3989 16.423 29.5873 16.8939 29.5873C18.1572 29.5873 18.9803 25.6784 19.111 21.5885C19.1335 20.8811 19.3482 20.1931 19.7407 19.6039C20.9718 17.7571 23.356 13.2854 19.984 10.3222Z" fill="#D5E6F7"/>
<path d="M16.893 30.2146C14.7537 30.2146 14.7537 27.6873 14.7537 24.4874C14.7537 23.2723 14.392 22.3359 13.6783 21.7037C13.3843 21.4434 13.0024 21.2998 12.6026 21.2998C12.2029 21.2998 11.8212 21.4434 11.527 21.7039C10.8135 22.3359 10.4516 23.2725 10.4516 24.4874C10.4516 27.6873 10.4516 30.2146 8.31225 30.2146C5.92852 30.2146 5.53255 23.6275 5.46816 21.6088C5.44893 21.0115 5.26746 20.4383 4.94321 19.952C3.65267 18.0156 1.05757 13.1583 4.79937 9.85907C5.73514 8.97725 7.03237 8.53027 8.65532 8.53027C10.1974 8.53027 11.6533 8.93941 12.3837 9.18318C12.5251 9.23063 12.6796 9.23063 12.8213 9.18318C13.5518 8.93941 15.0077 8.53027 16.5497 8.53027C18.1727 8.53027 19.4699 8.97746 20.4055 9.85907C24.1471 13.1583 21.552 18.0159 20.2616 19.952C19.9374 20.4383 19.7559 21.0113 19.7367 21.6088C19.6727 23.6277 19.2769 30.2146 16.893 30.2146ZM8.65574 9.78465C7.35934 9.78465 6.34936 10.1189 5.65381 10.7779C5.64817 10.7831 5.64231 10.7886 5.63646 10.7938C2.62596 13.4393 4.87903 17.5931 5.98747 19.2564C6.44156 19.9378 6.69578 20.7374 6.72233 21.5691C6.87369 26.3023 7.82513 28.8591 8.31559 28.9607C9.00759 28.9605 9.19784 27.999 9.19784 24.4876C9.19784 22.5076 10.0123 21.3705 10.6958 20.765C11.2195 20.3009 11.8968 20.0456 12.603 20.0456C13.3093 20.0456 13.9866 20.3011 14.5103 20.7648C15.1937 21.3703 16.0083 22.5076 16.0083 24.4876C16.0083 27.9961 16.1981 28.959 16.8918 28.9605C17.3824 28.8553 18.3326 26.2987 18.4838 21.5691C18.5103 20.7374 18.7645 19.9378 19.2186 19.2564C20.3271 17.5933 22.5801 13.4395 19.5696 10.7938C19.5638 10.7886 19.5579 10.7831 19.5523 10.7779C18.8567 10.1189 17.8468 9.78465 16.5506 9.78465C15.1858 9.78465 13.8775 10.1534 13.2189 10.373C12.8209 10.5057 12.3856 10.5057 11.9874 10.373C11.3286 10.1532 10.0205 9.78465 8.65574 9.78465Z" fill="#03426D"/>
<path d="M14.7083 4.87729H10.4968C9.27523 4.87729 8.19041 4.14536 7.73298 3.01266L6.86412 0.860988C6.78593 0.667605 6.80892 0.448089 6.92558 0.275404C7.04224 0.102509 7.23708 -0.000976562 7.44552 -0.000976562H17.7594C17.9678 -0.000976562 18.1629 0.102509 18.2793 0.275404C18.396 0.448089 18.419 0.667605 18.3408 0.860988L17.4719 3.01266C17.0147 4.14536 15.9299 4.87729 14.7083 4.87729ZM8.37543 1.2534L8.89599 2.5431C9.16108 3.19914 9.78932 3.62291 10.4968 3.62291H14.7083C15.4158 3.62291 16.0443 3.19914 16.3091 2.5431L16.8297 1.2534H8.37543Z" fill="#03426D"/>
<path d="M22.5062 39.9999H2.6996C1.27756 39.9999 0.120605 38.8432 0.120605 37.4211V33.6584C0.120605 33.312 0.401376 33.0312 0.747793 33.0312H24.458C24.8044 33.0312 25.0852 33.312 25.0852 33.6584V37.4211C25.0852 38.8432 23.9282 39.9999 22.5062 39.9999ZM1.37498 34.2856V37.4211C1.37498 38.1514 1.96934 38.7456 2.6996 38.7456H22.5062C23.2364 38.7456 23.8308 38.1514 23.8308 37.4211V34.2856H1.37498Z" fill="#03426D"/>
<path d="M22.5062 39.9998H2.6996C1.27756 39.9998 0.120605 38.8428 0.120605 37.4208V2.57802C0.120605 1.15597 1.27756 -0.000976562 2.6996 -0.000976562H22.5062C23.9282 -0.000976562 25.0852 1.15597 25.0852 2.57802V37.4208C25.0852 38.8428 23.9282 39.9998 22.5062 39.9998ZM2.6996 1.2534C1.96914 1.2534 1.37498 1.84755 1.37498 2.57802V37.4208C1.37498 38.1512 1.96914 38.7454 2.6996 38.7454H22.5062C23.2366 38.7454 23.8308 38.1512 23.8308 37.4208V2.57802C23.8308 1.84755 23.2366 1.2534 22.5062 1.2534H2.6996Z" fill="#03426D"/>
</svg>
