<svg width="40" height="43" viewBox="0 0 40 43" fill="none" xmlns="http://www.w3.org/2000/svg">
<path d="M36.0686 2.33606C33.159 -0.420368 27.9641 0.98341 26.219 1.56574C25.8354 1.6939 25.4218 1.6939 25.0383 1.56574C23.2929 0.98341 18.0982 -0.420597 15.1887 2.33606C10.4191 6.52768 13.7915 12.8528 15.5328 15.4655C16.0881 16.2986 16.3916 17.2719 16.4237 18.2728C16.6085 24.0581 17.7727 29.5872 19.56 29.5872C21.5131 29.5872 21.6993 27.3551 21.6993 22.3732C21.6993 20.0047 22.5875 18.5968 23.5192 17.7714C24.715 16.7122 26.5425 16.7122 27.7383 17.7714C28.67 18.5968 29.5582 20.0047 29.5582 22.3732C29.5582 27.3551 29.7441 29.5872 31.6975 29.5872C33.4848 29.5872 34.649 24.0581 34.8338 18.2728C34.8656 17.2721 35.1694 16.2989 35.7247 15.4655C37.4657 12.8531 40.8382 6.52768 36.0686 2.33606Z" fill="white"/>
<path d="M31.3379 36.6794L26.8776 32.2191C26.303 31.6446 25.3715 31.6446 24.797 32.2191L22.2166 34.7995C22.2166 34.7995 18.9744 33.9349 14.0569 29.0175C9.13947 24.1 8.27492 20.8578 8.27492 20.8578L10.8553 18.2774C11.4298 17.7029 11.4298 16.7714 10.8553 16.1969L6.39496 11.7365C5.81974 11.1613 4.8848 11.1622 4.3105 11.7381C-4.5276 20.6001 9.68007 33.3943 9.68007 33.3943C9.68007 33.3943 22.4743 47.6018 31.3363 38.7639C31.9122 38.1896 31.9131 37.2547 31.3379 36.6794Z" fill="#A0D1F2"/>
<path d="M31.6978 30.2747C28.8707 30.2747 28.8707 26.7876 28.8707 22.3729C28.8707 20.5945 28.3363 19.2196 27.2824 18.2858C26.83 17.8853 26.2427 17.6647 25.6289 17.6647C25.0152 17.6647 24.4278 17.8853 23.9755 18.286C22.9218 19.2196 22.3874 20.5945 22.3874 22.3729C22.3874 26.7876 22.3874 30.2747 19.5603 30.2747C16.2853 30.2747 15.8004 20.2951 15.7365 18.2945C15.7083 17.4123 15.44 16.5659 14.9606 15.8464C13.1641 13.1508 9.54635 6.39117 14.7254 1.82769C16.0109 0.615113 17.8007 0 20.0455 0C22.1982 0 24.2343 0.572241 25.2564 0.913156C25.4976 0.993856 25.7603 0.993856 26.0015 0.913156C27.0235 0.572241 29.0596 0 31.2124 0C33.4571 0 35.2467 0.615113 36.5325 1.82769C41.7115 6.39117 38.0937 13.151 36.297 15.8467C35.8178 16.5659 35.5496 17.4123 35.5214 18.2945C35.4577 20.2951 34.9726 30.2747 31.6978 30.2747ZM25.6289 16.2891C26.5792 16.2891 27.4903 16.6326 28.1944 17.2562C29.1305 18.0854 30.2463 19.6462 30.2463 22.3729C30.2463 27.5572 30.5448 28.8991 31.6978 28.8991C32.4546 28.8991 33.92 25.3407 34.1467 18.2507C34.1832 17.1117 34.531 16.0168 35.1528 15.0839C36.7498 12.6879 39.992 6.6993 35.6152 2.85272C35.6088 2.84699 35.6023 2.84103 35.5961 2.8353C34.5741 1.86689 33.0992 1.37581 31.2129 1.37581C29.2545 1.37581 27.38 1.9038 26.4373 2.21835C25.915 2.39259 25.3437 2.39259 24.8212 2.21835C23.8783 1.9038 22.004 1.37581 20.0457 1.37581C18.1593 1.37581 16.6845 1.86712 15.6622 2.8353C15.656 2.84103 15.6496 2.84699 15.6431 2.85272C11.2663 6.69907 14.5085 12.6877 16.1056 15.0839C16.7273 16.017 17.0751 17.1122 17.1116 18.2507C17.3383 25.3409 18.8038 28.8991 19.5606 28.8991C20.7135 28.8991 21.012 27.5572 21.012 22.3729C21.012 19.646 22.1279 18.0854 23.0637 17.2562C23.7678 16.6326 24.6789 16.2891 25.6289 16.2891Z" fill="#03426D"/>
<path d="M24.5881 42.3486C24.5878 42.3486 24.5881 42.3486 24.5881 42.3486C17.0458 42.3486 9.75198 34.4964 9.1928 33.8817C8.58801 33.3315 0.9297 26.2179 0.730012 18.7797C0.653438 15.9203 1.69406 13.3879 3.82346 11.253C4.23155 10.8438 4.77513 10.6182 5.35379 10.6182C5.93108 10.6182 6.47351 10.8426 6.88137 11.2505L11.3417 15.7108C11.7495 16.1184 11.974 16.6609 11.974 17.2375C11.974 17.814 11.7495 18.3563 11.3417 18.7639L9.0674 21.0382C9.44316 21.9866 10.7658 24.7536 14.5433 28.5314C18.3191 32.3071 21.0851 33.6302 22.0366 34.0071L24.3109 31.7331C24.7185 31.3254 25.2607 31.1008 25.8373 31.1008C26.4141 31.1008 26.9561 31.3252 27.364 31.7331L31.8245 36.1934C32.2326 36.6015 32.4573 37.1446 32.4568 37.7226C32.4564 38.3005 32.231 38.8437 31.822 39.2513C29.7607 41.3066 27.3268 42.3486 24.5881 42.3486ZM5.35356 11.994C5.1431 11.994 4.94547 12.0756 4.79714 12.2244C2.94446 14.0821 2.03887 16.2752 2.1049 18.743C2.29267 25.7385 10.0615 32.8134 10.1397 32.884C10.1575 32.8998 10.1745 32.917 10.1903 32.9349C10.2628 33.0153 17.5206 40.9735 24.5876 40.9735C26.9495 40.9735 29.0564 40.0666 30.8497 38.2778C30.9983 38.1297 31.0801 37.9323 31.0803 37.7219C31.0803 37.5119 30.9989 37.3147 30.8508 37.1664L26.3905 32.7061C26.0945 32.4101 25.5785 32.4101 25.2827 32.7061L22.7024 35.2864C22.5288 35.4602 22.2757 35.5281 22.0386 35.4646C21.899 35.4274 18.5605 34.495 13.5699 29.5044C8.57929 24.5138 7.64688 21.1753 7.60951 21.0359C7.54646 20.7986 7.61433 20.5457 7.78765 20.3722L10.368 17.7918C10.5161 17.6437 10.5975 17.447 10.5975 17.2379C10.5975 17.0286 10.5161 16.8319 10.368 16.6838L5.90838 12.2232C5.76027 12.0756 5.56334 11.994 5.35356 11.994Z" fill="#03426D"/>
<path d="M24.7056 11.8294C24.7056 12.1308 24.472 12.3645 24.1705 12.3645H20.7265C20.7265 12.3645 20.7265 12.3645 20.7169 12.3645H20.7072C20.5612 12.3645 20.4058 12.306 20.3083 12.1893C20.104 11.9653 20.1235 11.6347 20.3374 11.4304L23.2172 8.82303C23.4992 8.56993 23.6258 8.23933 23.6258 7.88925C23.6258 7.57791 23.5187 7.28582 23.3048 7.04281C23.0517 6.76081 22.7115 6.63426 22.3708 6.63426C22.0693 6.63426 21.7676 6.74132 21.5243 6.95523L21.2228 7.22759C20.9991 7.43187 20.6683 7.41238 20.464 7.18862C20.2693 6.96486 20.2792 6.63403 20.503 6.42976L20.8044 6.15739C21.2423 5.74884 21.8162 5.5542 22.3708 5.5542C23.0031 5.5542 23.6452 5.81694 24.1024 6.32292C24.5109 6.76058 24.7056 7.33466 24.7056 7.88925C24.7056 8.52155 24.4428 9.16372 23.9369 9.62087L22.0982 11.2846H24.1705C24.4722 11.2846 24.7056 11.5279 24.7056 11.8294Z" fill="#03426D"/>
<path d="M30.9603 10.5541C30.9603 10.8556 30.7171 11.0892 30.4156 11.0892H30.3184V11.8286C30.3184 12.1301 30.0848 12.3637 29.7833 12.3637C29.4818 12.3637 29.2482 12.1301 29.2482 11.8286V11.0892H26.2029H26.1932H26.1836C26.0669 11.0892 25.95 11.0599 25.8528 10.9723C25.6095 10.7875 25.5804 10.4567 25.7652 10.2231L29.3649 5.74787C29.3745 5.74787 29.3745 5.73801 29.3844 5.72838C29.3942 5.71875 29.4039 5.70889 29.4135 5.68941C29.4426 5.67978 29.4522 5.66992 29.4621 5.66029C29.4717 5.65043 29.4912 5.6408 29.5011 5.63094C29.5205 5.62131 29.5302 5.61169 29.5593 5.61169C29.5689 5.5922 29.5788 5.58234 29.5983 5.58234C29.6079 5.57271 29.6274 5.57271 29.6565 5.56285C29.6661 5.56285 29.6856 5.56285 29.6955 5.55322C29.715 5.55322 29.7441 5.55322 29.7636 5.55322C29.7636 5.55322 29.7732 5.55322 29.7831 5.55322C29.7929 5.55322 29.7927 5.55322 29.8025 5.55322C29.822 5.55322 29.8511 5.55322 29.8608 5.55322C29.8803 5.56285 29.8899 5.56285 29.9094 5.56285C29.919 5.57271 29.9481 5.57271 29.9676 5.58234C29.9772 5.58234 29.9967 5.5922 30.0066 5.5922C30.0261 5.61169 30.0456 5.62131 30.0552 5.63094C30.0747 5.6408 30.0843 5.65043 30.1038 5.66029C30.1038 5.66029 30.1134 5.66029 30.1134 5.66992C30.123 5.66992 30.1425 5.67978 30.1425 5.68941C30.1618 5.70889 30.1717 5.71875 30.1813 5.72838C30.1909 5.73801 30.2008 5.7575 30.2104 5.76736C30.22 5.77698 30.2299 5.78684 30.2494 5.81596C30.2494 5.82559 30.259 5.84508 30.2686 5.85493C30.2783 5.87442 30.2783 5.88405 30.2881 5.91339C30.2881 5.92302 30.2977 5.94251 30.2977 5.95214C30.3074 5.97163 30.3074 5.98149 30.3074 6.0106C30.3074 6.03009 30.317 6.03972 30.317 6.05921C30.317 6.06906 30.317 6.07869 30.317 6.08855V10.019H30.4142C30.7171 10.019 30.9603 10.2621 30.9603 10.5541ZM29.248 7.6159L27.3121 10.0188H29.248V7.6159Z" fill="#03426D"/>
</svg>
