<svg width="37" height="41" viewBox="0 0 37 41" fill="none" xmlns="http://www.w3.org/2000/svg">
<path d="M33.0057 3.38183C29.1021 -0.316355 22.1328 1.56724 19.7914 2.34857C19.2767 2.52039 18.722 2.52039 18.2075 2.34857C15.8661 1.56724 8.89677 -0.316118 4.99321 3.38183C-1.40583 9.00521 3.11883 17.4913 5.45478 20.9962C6.19994 22.1141 6.60715 23.4198 6.64993 24.7624C6.89808 32.5237 8.45979 39.9418 10.8577 39.9418C13.4779 39.9418 13.7275 36.9472 13.7275 30.2634C13.7275 27.0859 14.9191 25.1968 16.1693 24.0896C17.7736 22.6687 20.2253 22.6687 21.8296 24.0896C23.0798 25.1968 24.2711 27.0859 24.2711 30.2634C24.2711 36.9472 24.5207 39.9418 27.141 39.9418C29.5386 39.9418 31.1005 32.524 31.3487 24.7624C31.3917 23.4198 31.7989 22.1141 32.5439 20.9962C34.88 17.4913 39.4045 9.00521 33.0057 3.38183Z" fill="white"/>
<path d="M33.0054 3.38159C30.8477 1.33752 27.754 1.00003 25.0225 1.23779C26.8973 1.42284 28.7393 2.02668 30.1694 3.38159C36.5684 9.00497 32.0438 17.4911 29.7078 20.996C28.9629 22.1138 28.5554 23.4196 28.5124 24.7622C28.3085 31.1449 27.2154 37.2913 25.5001 39.2751C25.9033 39.7225 26.4355 39.9416 27.1407 39.9416C29.5384 39.9416 31.1003 32.5237 31.3485 24.7622C31.3912 23.4196 31.7987 22.1138 32.5436 20.996C34.8798 17.4911 39.4042 9.00497 33.0054 3.38159Z" fill="#D5E6F7"/>
<path d="M27.1401 40.6509C23.5611 40.6509 23.5611 36.2938 23.5611 30.2634C23.5611 27.8138 22.8199 25.9153 21.3584 24.6204C20.7125 24.0483 19.8742 23.733 18.9984 23.733C18.1225 23.733 17.2842 24.048 16.6383 24.6204C15.1766 25.9153 14.4357 27.8138 14.4357 30.2634C14.4357 36.2938 14.4357 40.6509 10.8566 40.6509C6.5711 40.6509 5.99207 26.409 5.94032 24.7851C5.90108 23.5619 5.52885 22.3878 4.86357 21.3895C2.48414 17.8191 -2.31112 8.86862 4.51403 2.85789C6.19816 1.26782 8.55088 0.461914 11.5074 0.461914C14.3657 0.461914 17.072 1.22244 18.4307 1.67597C18.7982 1.79863 19.199 1.79863 19.566 1.67597C20.925 1.22268 23.6313 0.461914 26.4895 0.461914C29.4461 0.461914 31.7988 1.26806 33.4829 2.85789C40.3081 8.86862 35.5128 17.8189 33.1334 21.3895C32.4683 22.3878 32.0959 23.5619 32.0566 24.7851C32.0046 26.409 31.4256 40.6509 27.1401 40.6509ZM18.9984 22.315C20.2209 22.315 21.3931 22.7567 22.2988 23.559C23.5216 24.6422 24.9793 26.6846 24.9793 30.2634C24.9793 36.9933 25.2915 39.2328 27.1404 39.2328C28.413 39.2328 30.3371 34.1963 30.6396 24.7398C30.6871 23.252 31.1413 21.8215 31.9536 20.6032C34.1272 17.3415 38.5358 9.18579 32.5371 3.91455C32.5305 3.90888 32.5239 3.90273 32.5175 3.89659C31.1049 2.55845 29.0769 1.87993 26.4897 1.87993C23.8321 1.87993 21.2925 2.59485 20.0151 3.02096C19.3583 3.24052 18.6394 3.24052 17.9819 3.02096C16.705 2.59485 14.1653 1.87993 11.5074 1.87993C8.92028 1.87993 6.89228 2.55845 5.4797 3.89659C5.47332 3.90273 5.4667 3.90864 5.46008 3.91455C-0.538602 9.18602 3.86977 17.3415 6.04359 20.6032C6.85588 21.8215 7.30988 23.252 7.35762 24.7398C7.6599 34.1963 9.58414 39.2328 10.8568 39.2328C12.7054 39.2328 13.0179 36.9933 13.0179 30.2634C13.0179 26.6846 14.4756 24.6422 15.6984 23.559C16.6036 22.7569 17.7758 22.315 18.9984 22.315Z" fill="#03426D"/>
<path d="M29.5868 17.6974V13.6572H27.6798C27.4558 12.6909 27.0758 11.7848 26.5658 10.9673L27.9143 9.61874L25.0575 6.76191L23.7089 8.11044C22.8914 7.60043 21.9853 7.2204 21.019 6.99635V5.08936H16.9788V6.99635C16.0124 7.2204 15.1063 7.60043 14.2888 8.11044L12.9403 6.76191L10.0839 9.61897L11.4325 10.9675C10.9224 11.785 10.5424 12.6911 10.3184 13.6575H8.41113V17.6976H10.3181C10.5422 18.664 10.9222 19.5699 11.4322 20.3874L10.0837 21.7359L12.9405 24.5928L14.289 23.2442C15.1065 23.7542 16.0126 24.1343 16.979 24.3583V26.2653H21.0192V24.3583C21.9856 24.1343 22.8917 23.7542 23.7092 23.2442L25.0577 24.5928L27.9145 21.7359L26.566 20.3874C27.076 19.5699 27.456 18.6638 27.6801 17.6976H29.5868V17.6974ZM18.999 21.4032C15.8366 21.4032 13.273 18.8396 13.273 15.6774C13.273 12.5153 15.8366 9.95173 18.999 9.95173C22.1614 9.95173 24.7247 12.5153 24.7247 15.6774C24.7247 18.8396 22.1612 21.4032 18.999 21.4032Z" fill="#A0D1F2"/>
<path d="M21.0182 26.9743H16.9778C16.5862 26.9743 16.2688 26.6569 16.2688 26.2653V24.9045C15.6208 24.7133 14.9964 24.4548 14.403 24.1317L13.4408 25.0938C13.1638 25.3706 12.7153 25.3706 12.4383 25.0938L9.58146 22.237C9.4484 22.1039 9.37372 21.9236 9.37372 21.7357C9.37372 21.5476 9.4484 21.3673 9.58146 21.2342L10.5436 20.2721C10.2205 19.6789 9.96196 19.0547 9.77077 18.4062H8.41018C8.01857 18.4062 7.70117 18.0888 7.70117 17.6972V13.6575C7.70117 13.2659 8.01857 12.9485 8.41018 12.9485H9.771C9.9622 12.3 10.2205 11.6758 10.5438 11.0826L9.5817 10.1205C9.44864 9.98744 9.37396 9.80712 9.37396 9.619C9.37396 9.43111 9.44864 9.25055 9.5817 9.11773L12.4385 6.2609C12.7155 5.98391 13.1641 5.98391 13.4411 6.2609L14.4032 7.22302C14.9966 6.89995 15.6208 6.6414 16.2691 6.4502V5.08938C16.2691 4.69777 16.5865 4.38037 16.9781 4.38037H21.0185C21.4101 4.38037 21.7275 4.69777 21.7275 5.08938V6.4502C22.3755 6.6414 22.9999 6.89995 23.5934 7.22302L24.5555 6.2609C24.8325 5.98391 25.281 5.98391 25.558 6.2609L28.4148 9.11773C28.5479 9.25078 28.6226 9.43111 28.6226 9.619C28.6226 9.80712 28.5479 9.98744 28.4148 10.1205L27.4527 11.0826C27.7758 11.6758 28.0343 12.3 28.2255 12.9485H29.5864C29.978 12.9485 30.2954 13.2659 30.2954 13.6575V17.6977C30.2954 18.0893 29.978 18.4067 29.5864 18.4067H28.2255C28.0343 19.0549 27.776 19.6793 27.4527 20.2726L28.4148 21.2347C28.5479 21.3677 28.6226 21.5481 28.6226 21.7362C28.6226 21.9241 28.5479 22.1046 28.4148 22.2374L25.5578 25.0938C25.2808 25.3708 24.8322 25.3706 24.5552 25.0938L23.5931 24.1317C22.9997 24.4545 22.3755 24.7131 21.7272 24.9045V26.2653C21.7272 26.6567 21.4098 26.9743 21.0182 26.9743ZM17.6868 25.5563H20.3092V24.3583C20.3092 24.0284 20.5368 23.7422 20.858 23.6678C21.736 23.464 22.5686 23.1192 23.3327 22.6428C23.613 22.4681 23.9757 22.5097 24.2092 22.743L25.0565 23.59L26.9106 21.7359L26.0635 20.8889C25.8303 20.6557 25.7887 20.2922 25.9633 20.0123C26.44 19.2485 26.7848 18.4159 26.9881 17.5377C27.0625 17.2163 27.349 16.9887 27.6789 16.9887H28.8769V14.3665H27.6789C27.349 14.3665 27.0628 14.1389 26.9881 13.8175C26.7848 12.9393 26.44 12.1067 25.9633 11.3428C25.7887 11.0628 25.8303 10.6995 26.0635 10.4663L26.9106 9.61923L25.0565 7.76518L24.2092 8.6122C23.9757 8.8457 23.613 8.8873 23.3327 8.71241C22.5686 8.23572 21.736 7.89091 20.858 7.68742C20.5368 7.61298 20.3092 7.32677 20.3092 6.99685V5.79886H17.6868V6.99685C17.6868 7.32677 17.4593 7.61298 17.1381 7.68742C16.2601 7.89091 15.4277 8.23572 14.6634 8.71241C14.3833 8.88706 14.0201 8.84547 13.7868 8.6122L12.9396 7.76518L11.0855 9.61923L11.9325 10.4663C12.1658 10.6995 12.2074 11.063 12.0327 11.3428C11.556 12.1067 11.2112 12.9393 11.008 13.8175C10.9335 14.1389 10.6471 14.3665 10.3172 14.3665H9.11919V16.9887H10.3172C10.6471 16.9887 10.9333 17.2163 11.008 17.5377C11.2112 18.4159 11.556 19.2485 12.0327 20.0123C12.2074 20.2924 12.1658 20.6557 11.9325 20.8889L11.0855 21.7359L12.9396 23.59L13.7868 22.743C14.0201 22.5099 14.3833 22.4681 14.6634 22.6428C15.4272 23.1192 16.2601 23.464 17.1381 23.6678C17.4593 23.7422 17.6868 24.0286 17.6868 24.3583V25.5563ZM18.998 22.1122C15.4497 22.1122 12.5631 19.2256 12.5631 15.6775C12.5631 12.1294 15.4497 9.24251 18.998 9.24251C22.5464 9.24251 25.433 12.1291 25.433 15.6775C25.433 19.2258 22.5464 22.1122 18.998 22.1122ZM18.998 10.6605C16.2317 10.6605 13.9811 12.9109 13.9811 15.6775C13.9811 18.4438 16.2315 20.6942 18.998 20.6942C21.7646 20.6942 24.015 18.4438 24.015 15.6775C24.015 12.9112 21.7643 10.6605 18.998 10.6605Z" fill="#03426D"/>
</svg>
