<svg width="30" height="40" viewBox="0 0 30 40" fill="none" xmlns="http://www.w3.org/2000/svg">
<path d="M26.9662 14.797C26.1556 15.8069 25.5443 18.9498 25.119 20.179C24.921 20.7263 24.5601 21.1998 24.085 21.536C23.6099 21.8721 23.0432 22.0548 22.4612 22.0594H7.40484C6.82284 22.0548 6.2562 21.8721 5.78107 21.536C5.30594 21.1998 4.9451 20.7263 4.74705 20.179C4.74323 20.1414 4.74323 20.1036 4.74705 20.066C4.3218 18.7704 3.71715 15.7803 2.9331 14.797C1.67137 13.2631 0.976791 11.3412 0.966333 9.35513C0.961302 7.24753 1.73416 5.2122 3.1368 3.63912C4.53945 2.06605 6.47324 1.06588 8.56763 0.830249C8.81994 0.817 9.07278 0.817 9.3251 0.830249C10.253 0.830029 11.1741 0.987301 12.0493 1.29536C13.9064 1.95309 15.9331 1.95309 17.7902 1.29536C18.6654 0.987301 19.5866 0.830029 20.5144 0.830249C20.7667 0.817 21.0196 0.817 21.2719 0.830249C23.2118 1.04484 25.0196 1.91758 26.3943 3.3031C27.7689 4.68863 28.6274 6.50329 28.8267 8.44483C29.0694 10.7248 28.4006 13.0082 26.9662 14.797Z" fill="#A1D8DF"/>
<path d="M28.2088 5.93986C27.0824 10.0069 24.6521 13.5916 21.2911 16.1436C17.9301 18.6956 13.8243 20.0736 9.60419 20.066H9.51117C8.19089 20.0566 6.90409 19.6496 5.81845 18.8982C4.73282 18.1468 3.8987 17.0858 3.42481 15.8534C3.28969 15.4779 3.10416 15.1225 2.87332 14.797C1.6331 13.255 0.959911 11.334 0.966354 9.35513C0.961323 7.24753 1.73418 5.2122 3.13682 3.63912C4.53947 2.06605 6.47326 1.06588 8.56765 0.830249C8.81997 0.817 9.0728 0.817 9.32512 0.830249C10.253 0.830029 11.1741 0.987301 12.0494 1.29536C13.9065 1.95309 15.9331 1.95309 17.7902 1.29536C18.6654 0.987301 19.5866 0.830029 20.5144 0.830249C20.7668 0.817 21.0196 0.817 21.2719 0.830249C22.7799 0.982323 24.2193 1.53679 25.4396 2.43567C26.66 3.33454 27.6163 4.5448 28.2088 5.93986Z" fill="white"/>
<path d="M17.5776 39.3352H12.3285L9.00622 33.003L8.22217 22.0596H21.6175L20.8999 33.003L17.5776 39.3352Z" fill="#30ACC2"/>
<path d="M16.913 22.724H7.40469C6.67809 22.729 5.96793 22.5078 5.37265 22.0911C4.77738 21.6744 4.32648 21.0829 4.08245 20.3985C3.94291 20.0064 3.80338 19.4749 3.63727 18.8503C3.29176 17.5679 2.82664 15.8138 2.34159 15.2158C0.801738 13.2886 0.0853197 10.8313 0.348247 8.37859C0.407774 7.75757 0.534769 7.14488 0.726983 6.55136C0.790592 6.39774 0.909478 6.27356 1.06017 6.20332C1.21087 6.13308 1.38242 6.12189 1.54097 6.17196C1.69951 6.22202 1.83352 6.32971 1.91655 6.47376C1.99958 6.6178 2.02558 6.78774 1.98944 6.95003C1.59993 8.20831 1.52344 9.54265 1.76661 10.8372C2.00977 12.1317 2.56523 13.3474 3.38478 14.3786C4.04923 15.2025 4.51434 16.9566 4.9263 18.5114C5.07912 19.0762 5.2253 19.6211 5.3449 19.9599C5.49752 20.3829 5.77761 20.7481 6.14654 21.0051C6.51546 21.2622 6.95506 21.3985 7.40469 21.3951H16.913C17.0892 21.3951 17.2582 21.4651 17.3828 21.5898C17.5074 21.7144 17.5774 21.8834 17.5774 22.0596C17.5774 22.2358 17.5074 22.4048 17.3828 22.5294C17.2582 22.654 17.0892 22.724 16.913 22.724Z" fill="#03426D"/>
<path d="M22.4343 22.7239H19.5705C19.3943 22.7239 19.2253 22.6539 19.1007 22.5293C18.9761 22.4047 18.9061 22.2357 18.9061 22.0594C18.9061 21.8832 18.9761 21.7142 19.1007 21.5896C19.2253 21.465 19.3943 21.395 19.5705 21.395H22.4343C22.8835 21.3964 23.3222 21.2593 23.6907 21.0026C24.0593 20.7458 24.3398 20.3817 24.4941 19.9598C24.607 19.6209 24.7532 19.0761 24.906 18.5113C25.318 16.9565 25.7897 15.189 26.4475 14.3784C27.1051 13.5613 27.5951 12.6224 27.8892 11.6157C28.1834 10.6089 28.276 9.55396 28.1618 8.51133C27.9932 6.71858 27.2085 5.03966 25.9413 3.76036C24.6741 2.48105 23.0028 1.68042 21.2117 1.49475C20.1284 1.39494 19.0363 1.52862 18.0091 1.88677C16.0106 2.59791 13.8281 2.59791 11.8297 1.88677C10.8024 1.52862 9.71033 1.39494 8.62704 1.49475C7.25648 1.62085 5.94775 2.12456 4.84632 2.94989C4.77652 3.00224 4.69708 3.04034 4.61256 3.06199C4.52803 3.08365 4.44006 3.08844 4.35369 3.0761C4.26731 3.06376 4.1842 3.03453 4.10912 2.99007C4.03404 2.94562 3.96845 2.88681 3.91609 2.817C3.86374 2.7472 3.82565 2.66776 3.80399 2.58324C3.78234 2.49871 3.77754 2.41074 3.78988 2.32436C3.80222 2.23798 3.83145 2.15488 3.87591 2.0798C3.92037 2.00472 3.97918 1.93913 4.04898 1.88677C5.2083 1.01661 6.56508 0.447107 7.99814 0.229132C9.43121 0.0111574 10.896 0.151494 12.2616 0.637609C13.9802 1.25214 15.8586 1.25214 17.5772 0.637609C18.7818 0.210003 20.065 0.0490433 21.3379 0.16585C23.4348 0.384637 25.3916 1.32191 26.8763 2.81874C28.361 4.31557 29.2823 6.27982 29.4841 8.37844C29.747 10.8312 29.0306 13.2885 27.4907 15.2156C27.0057 15.8136 26.5406 17.5678 26.1951 18.8502C26.0289 19.4747 25.8894 20.0063 25.7499 20.3983C25.5062 21.0817 25.0563 21.6725 24.4624 22.0891C23.8684 22.5057 23.1598 22.7275 22.4343 22.7239Z" fill="#03426D"/>
<path d="M14.9195 5.92685C12.6439 5.88441 10.4149 5.27462 8.43452 4.15277C8.34431 4.11829 8.2627 4.06455 8.19537 3.9953C8.12805 3.92605 8.07663 3.84296 8.04469 3.75181C8.01276 3.66066 8.00108 3.56365 8.01047 3.46753C8.01986 3.3714 8.05009 3.27848 8.09906 3.19524C8.14803 3.11199 8.21456 3.04042 8.29401 2.98551C8.37346 2.9306 8.46393 2.89367 8.55912 2.8773C8.6543 2.86092 8.75191 2.86549 8.84514 2.89069C8.93838 2.91589 9.025 2.96111 9.09897 3.02321C10.8828 4.0123 12.8804 4.55274 14.9195 4.59795C16.9497 4.54846 18.9376 4.00815 20.7135 3.02321C20.7875 2.96111 20.8741 2.91589 20.9674 2.89069C21.0606 2.86549 21.1582 2.86092 21.2534 2.8773C21.3486 2.89367 21.439 2.9306 21.5185 2.98551C21.5979 3.04042 21.6645 3.11199 21.7134 3.19524C21.7624 3.27848 21.7926 3.3714 21.802 3.46753C21.8114 3.56365 21.7997 3.66066 21.7678 3.75181C21.7359 3.84296 21.6845 3.92605 21.6171 3.9953C21.5498 4.06455 21.4682 4.11829 21.378 4.15277C19.4055 5.27036 17.1861 5.88001 14.9195 5.92685Z" fill="#03426D"/>
<path d="M17.5779 39.9996H12.3288C12.2086 39.9993 12.0907 39.9663 11.9877 39.9043C11.8848 39.8423 11.8005 39.7535 11.744 39.6474C10.4683 37.2288 9.67761 35.7205 8.4218 33.3086C8.38001 33.2281 8.35514 33.1399 8.34871 33.0495L7.55802 22.106C7.55215 22.0151 7.56505 21.9239 7.59592 21.8382C7.62678 21.7524 7.67495 21.674 7.73742 21.6076C7.79937 21.5408 7.8744 21.4875 7.95784 21.4509C8.04129 21.4143 8.13136 21.3953 8.22247 21.395H16.9135C17.0897 21.395 17.2587 21.465 17.3833 21.5896C17.5079 21.7142 17.5779 21.8832 17.5779 22.0595C17.5779 22.2357 17.5079 22.4047 17.3833 22.5293C17.2587 22.6539 17.0897 22.7239 16.9135 22.7239H8.94007L9.60452 32.8169L12.6942 38.6707H17.146L20.2357 32.8169L20.9002 22.7239H19.5713C19.395 22.7239 19.226 22.6539 19.1014 22.5293C18.9768 22.4047 18.9068 22.2357 18.9068 22.0595C18.9068 21.8832 18.9768 21.7142 19.1014 21.5896C19.226 21.465 19.395 21.395 19.5713 21.395H21.6178C21.7089 21.3953 21.7989 21.4143 21.8824 21.4509C21.9658 21.4875 22.0409 21.5408 22.1028 21.6076C22.1653 21.674 22.2134 21.7524 22.2443 21.8382C22.2752 21.9239 22.2881 22.0151 22.2822 22.106L21.5646 33.0495C21.5582 33.1399 21.5333 33.2281 21.4915 33.3086C20.2291 35.7205 19.4384 37.2288 18.1693 39.6474C18.1122 39.7545 18.027 39.844 17.9227 39.906C17.8185 39.9681 17.6992 40.0005 17.5779 39.9996Z" fill="#03426D"/>
<path d="M22.8931 26.7107H22.84L6.8932 25.3818C6.71698 25.3677 6.55357 25.2842 6.43893 25.1496C6.3243 25.015 6.26781 24.8404 6.28191 24.6642C6.29601 24.488 6.37953 24.3246 6.51411 24.2099C6.64869 24.0953 6.82329 24.0388 6.99951 24.0529L22.9463 25.3818C23.1225 25.3889 23.2887 25.4656 23.4083 25.5952C23.528 25.7248 23.5912 25.8966 23.5842 26.0728C23.5771 26.2491 23.5003 26.4153 23.3707 26.5349C23.2412 26.6545 23.0693 26.7178 22.8931 26.7107Z" fill="#03426D"/>
<path d="M22.8928 30.0331H22.8397L6.89288 28.7042C6.80552 28.6975 6.72035 28.6736 6.64228 28.6339C6.5642 28.5941 6.49475 28.5393 6.43794 28.4726C6.38112 28.4059 6.33806 28.3286 6.31123 28.2452C6.28439 28.1618 6.27432 28.0739 6.28159 27.9866C6.28829 27.8993 6.31221 27.8141 6.35196 27.736C6.39172 27.6579 6.44652 27.5885 6.51321 27.5317C6.57991 27.4749 6.65718 27.4318 6.74059 27.405C6.82399 27.3781 6.91188 27.3681 6.99919 27.3753L22.946 28.7042C23.1222 28.7113 23.2884 28.788 23.408 28.9176C23.5276 29.0472 23.5909 29.219 23.5838 29.3953C23.5768 29.5715 23.5 29.7377 23.3704 29.8573C23.2408 29.9769 23.069 30.0402 22.8928 30.0331Z" fill="#03426D"/>
<path d="M22.2284 33.3554H22.1686L12.8664 32.5115C12.779 32.504 12.6939 32.4793 12.6162 32.4387C12.5384 32.3982 12.4694 32.3427 12.4132 32.2753C12.357 32.208 12.3146 32.1302 12.2886 32.0464C12.2626 31.9627 12.2535 31.8746 12.2617 31.7873C12.2692 31.6999 12.294 31.6148 12.3345 31.5371C12.375 31.4593 12.4306 31.3903 12.4979 31.3341C12.5652 31.2779 12.643 31.2355 12.7268 31.2095C12.8105 31.1835 12.8986 31.1744 12.986 31.1826L22.2882 32.0265C22.3755 32.0304 22.4611 32.0515 22.5402 32.0885C22.6194 32.1255 22.6904 32.1777 22.7493 32.2422C22.8082 32.3067 22.8539 32.3821 22.8837 32.4643C22.9134 32.5464 22.9267 32.6336 22.9228 32.7208C22.9189 32.8081 22.8978 32.8937 22.8608 32.9728C22.8238 33.0519 22.7715 33.123 22.707 33.1819C22.6426 33.2408 22.5671 33.2865 22.485 33.3162C22.4029 33.346 22.3157 33.3593 22.2284 33.3554Z" fill="#03426D"/>
<path d="M10.335 32.272H10.2685L7.55093 32.0262C7.46354 32.0186 7.37851 31.9939 7.30073 31.9534C7.22295 31.9128 7.15396 31.8573 7.09775 31.79C7.04154 31.7226 6.99921 31.6448 6.97322 31.5611C6.94722 31.4773 6.93807 31.3892 6.94628 31.3019C6.95379 31.2145 6.97852 31.1295 7.01906 31.0517C7.0596 30.9739 7.11513 30.9049 7.18246 30.8487C7.24979 30.7925 7.32758 30.7502 7.41135 30.7242C7.49512 30.6982 7.58321 30.689 7.67053 30.6973L10.3948 30.9431C10.571 30.951 10.7369 31.0286 10.8559 31.1589C10.9749 31.2891 11.0373 31.4612 11.0293 31.6375C11.0214 31.8137 10.9438 31.9795 10.8136 32.0985C10.6834 32.2175 10.5112 32.2799 10.335 32.272Z" fill="#03426D"/>
<path d="M20.8997 36.6772H20.8333L8.20874 35.3483C8.12148 35.3396 8.0368 35.3138 7.95952 35.2723C7.88225 35.2309 7.8139 35.1746 7.75837 35.1067C7.70284 35.0389 7.66122 34.9607 7.63589 34.8768C7.61056 34.7928 7.60201 34.7047 7.61074 34.6174C7.61946 34.5302 7.64529 34.4455 7.68674 34.3682C7.7282 34.2909 7.78446 34.2226 7.85233 34.1671C7.9202 34.1115 7.99835 34.0699 8.0823 34.0446C8.16625 34.0192 8.25437 34.0107 8.34163 34.0194L20.9662 35.3483C21.1424 35.3571 21.3079 35.4356 21.4263 35.5664C21.5446 35.6973 21.6062 35.8698 21.5974 36.046C21.5886 36.2222 21.5101 36.3877 21.3793 36.5061C21.2484 36.6245 21.0759 36.686 20.8997 36.6772Z" fill="#03426D"/>
<path d="M2.60732 4.96318C2.97429 4.96318 3.27177 4.66569 3.27177 4.29873C3.27177 3.93176 2.97429 3.63428 2.60732 3.63428C2.24036 3.63428 1.94287 3.93176 1.94287 4.29873C1.94287 4.66569 2.24036 4.96318 2.60732 4.96318Z" fill="#03426D"/>
</svg>
