<svg width="111" height="111" viewBox="0 0 111 111" fill="none" xmlns="http://www.w3.org/2000/svg">
<g clip-path="url(#clip0)">
<path d="M54.1125 52.6218C58.5525 45.9748 64.75 42.4667 67.9875 40.1587L65.2125 48.4674L55.5 63.7001L48.5625 78.9328H47.175L43.0125 76.1632L27.75 66.4697L30.525 62.3153L45.7875 67.8545C46.7125 65.5465 49.6725 59.2688 54.1125 52.6218Z" fill="#A0D1F2" stroke="#A0D1F2"/>
<path d="M107.446 75.7143C106.958 73.0721 105.648 68.2449 102.346 65.6061C99.458 63.2993 96.8208 63.041 94.3508 63.4695V30.9635C94.3508 30.9186 94.3465 30.8737 94.344 30.8297C94.3465 30.7848 94.3508 30.7408 94.3508 30.6959V20.7419C94.3508 14.188 89.1816 8.81718 82.6989 8.47589V6.92529C82.6989 5.07489 81.9768 3.33628 80.6658 2.02788C79.3566 0.720322 77.6146 0.000488281 75.7605 0.000488281C71.9354 0.000488281 68.823 3.10678 68.823 6.92444V8.45726H55.6896V6.92444C55.6896 5.07828 54.9684 3.33967 53.6549 2.02534C52.3431 0.719475 50.6011 0.000488281 48.7496 0.000488281C44.9236 0.000488281 41.8113 3.10678 41.8113 6.92444V8.45726H28.6787V6.92444C28.6787 5.07828 27.9575 3.33967 26.6431 2.02534C25.3313 0.719475 23.5893 0.000488281 21.7378 0.000488281C17.9127 0.000488281 14.8003 3.10678 14.8003 6.92444V8.47505C8.31762 8.81718 3.14844 14.188 3.14844 20.741V30.6959C3.14844 30.7408 3.15268 30.7848 3.15523 30.8297C3.15268 30.8737 3.14844 30.9178 3.14844 30.9635V79.7648C3.14844 85.0331 7.4428 89.3183 12.7214 89.3183H62.8002C64.275 96.8689 67.8184 104.141 72.6796 109.506C73.7249 110.66 75.2675 111.196 76.8068 110.936C78.3536 110.677 79.6442 109.662 80.2585 108.219C81.1122 106.21 81.7978 104.392 82.2967 102.816C82.67 101.635 83.7578 100.842 85.0035 100.842C85.6136 100.842 86.1931 101.03 86.6827 101.388C87.1723 101.746 87.5287 102.241 87.7111 102.816C88.2177 104.416 88.9033 106.234 89.7484 108.22C90.361 109.66 91.6499 110.675 93.1976 110.935C93.4539 110.978 93.7101 111 93.9638 111C95.2375 111 96.4568 110.469 97.3282 109.506C101.388 105.024 104.486 99.3553 106.289 93.1139C108.006 87.1732 108.417 80.9945 107.446 75.7143ZM73.1675 6.92444C73.1675 5.49748 74.3308 4.33643 75.7605 4.33643C76.4538 4.33643 77.1054 4.60488 77.5942 5.09352C78.0846 5.58301 78.3545 6.2334 78.3545 6.92444V13.2683C78.3545 14.6969 77.1911 15.8588 75.7605 15.8588C74.3308 15.8588 73.1675 14.6969 73.1675 13.2683V6.92444ZM46.1557 6.92444C46.1557 5.49748 47.319 4.33643 48.7496 4.33643C49.4428 4.33643 50.0945 4.60573 50.5824 5.09098C51.0745 5.58301 51.3452 6.23425 51.3452 6.92444V13.2683C51.3452 14.6969 50.1811 15.8588 48.7496 15.8588C47.319 15.8588 46.1557 14.6969 46.1557 13.2683V6.92444ZM19.1447 6.92444C19.1447 5.49748 20.3081 4.33643 21.7378 4.33643C22.4311 4.33643 23.0836 4.60573 23.5715 5.09098C24.0628 5.58301 24.3334 6.23425 24.3334 6.92444V13.2683C24.3334 14.6969 23.1693 15.8588 21.7378 15.8588C20.3081 15.8588 19.1447 14.6969 19.1447 13.2683V6.92444ZM7.49286 79.7648V33.1315H14.3574C15.5563 33.1315 16.5296 32.161 16.5296 30.9635C16.5296 29.766 15.5563 28.7955 14.3574 28.7955H7.49286V20.7419C7.49286 16.5795 10.7147 13.1548 14.8003 12.8203V13.2683C14.8003 17.0876 17.9127 20.1948 21.7378 20.1948C25.5646 20.1948 28.6779 17.0876 28.6779 13.2683V12.794H41.8113V13.2683C41.8113 17.0876 44.9236 20.1948 48.7496 20.1948C52.5764 20.1948 55.6896 17.0876 55.6896 13.2683V12.794H68.823V13.2683C68.823 17.0876 71.9354 20.1948 75.7605 20.1948C79.5865 20.1948 82.6989 17.0876 82.6989 13.2683V12.8203C86.7845 13.1548 90.0063 16.5795 90.0063 20.7419V28.7955H31.7342C30.5344 28.7955 29.562 29.766 29.562 30.9635C29.562 32.161 30.5344 33.1315 31.7342 33.1315H90.0063V64.7042C88.4315 65.2182 86.7972 65.6933 85.0035 65.7306C82.9679 65.6883 81.1385 65.0827 79.3684 64.4959C75.9498 63.3636 72.0737 62.0798 67.658 65.6061C64.3556 68.2458 63.0472 73.0729 62.561 75.716C62.0332 78.5843 61.9101 81.7473 62.1885 84.9823H12.7214C9.83817 84.9823 7.49286 82.6416 7.49286 79.7648ZM94.1055 106.598C94.0843 106.622 94.0317 106.679 93.9189 106.66C93.7958 106.639 93.7602 106.554 93.7475 106.525C92.9558 104.665 92.3186 102.978 91.8536 101.509C91.3894 100.045 90.4874 98.7938 89.2486 97.8894C88.0115 96.9841 86.5435 96.5056 85.0035 96.5056C81.8529 96.5056 79.1003 98.5169 78.1542 101.511C77.6969 102.955 77.0588 104.644 76.2603 106.525C76.2476 106.553 76.2111 106.639 76.0872 106.66C75.9744 106.679 75.9235 106.622 75.9014 106.598C71.2048 101.414 67.8786 94.2089 66.7773 86.8319C66.2376 83.2098 66.2571 79.6361 66.8341 76.4985C67.4663 73.0636 68.7891 70.2571 70.3733 68.991C72.8357 67.0246 74.5862 67.4802 77.9998 68.6116C79.993 69.2713 82.2517 70.02 84.9661 70.0665H85.0416C87.7552 70.0191 90.0148 69.2713 92.0089 68.6108C92.2804 68.5202 92.5494 68.4321 92.8166 68.3457C92.8243 68.3432 92.8319 68.3406 92.8395 68.3381C92.8412 68.3372 92.8438 68.3364 92.8455 68.3355C95.8433 67.3701 97.4487 67.2473 99.6311 68.991C101.215 70.2571 102.539 73.0636 103.173 76.4985C104.982 86.3288 101.253 98.7057 94.1055 106.598Z" fill="#504774"/>
<path d="M71.8948 37.2631C70.6661 35.7988 68.6653 35.3314 66.9148 36.1012C55.6465 41.0545 47.0747 57.9748 44.0896 64.571C40.4181 62.5995 34.6702 59.8853 30.9274 59.9624C30.7942 59.9658 30.6618 59.9726 30.5328 59.9827C27.7802 60.2012 25.6759 62.2955 25.4137 65.0741C25.1498 67.8823 26.8443 70.3576 29.535 71.0919C36.0032 72.8584 42.0964 78.5654 45.152 81.8106C45.9657 82.6744 47.0637 83.1419 48.2109 83.1419C48.5282 83.1419 48.8498 83.1063 49.1697 83.0326C50.6436 82.6956 51.7942 81.6353 52.2481 80.1948C56.6392 66.2453 67.6403 49.0921 72.1663 42.3654C73.2337 40.7793 73.1243 38.729 71.8948 37.2631ZM48.1701 78.684C44.7532 75.0823 38.0694 68.9264 30.6813 66.9101C29.7072 66.6433 29.714 65.7482 29.7394 65.4789C29.7708 65.1511 29.9431 64.3788 30.879 64.3043C30.9282 64.3009 30.9774 64.2983 31.0233 64.2975C31.0504 64.2966 31.0784 64.2966 31.1064 64.2966C33.3185 64.2966 37.8581 66.059 43.0001 68.9188C43.8062 69.3668 44.7693 69.4549 45.6424 69.161C46.5164 68.8663 47.2291 68.2142 47.5982 67.3691C49.2121 63.6733 57.744 45.133 68.3955 40.1915C62.6425 48.7652 52.5612 64.8954 48.1701 78.684Z" fill="#504774"/>
<path d="M23.0527 28.7954H23.0476C21.8486 28.7954 20.8779 29.7668 20.8779 30.9634C20.8779 32.1608 21.8537 33.1314 23.0535 33.1314C24.2533 33.1314 25.2257 32.1608 25.2257 30.9634C25.2257 29.7668 24.2525 28.7954 23.0527 28.7954Z" fill="#504774"/>
<path d="M95.3988 72.6278C94.2797 73.0572 93.7205 74.3122 94.1515 75.4292C94.177 75.497 96.7124 82.2253 94.1617 88.5878C93.7162 89.6997 94.2584 90.9615 95.3717 91.4061C95.6364 91.512 95.9097 91.562 96.1778 91.562C97.0399 91.562 97.8562 91.0462 98.1956 90.1985C101.372 82.2736 98.3364 74.2123 98.2057 73.8727C97.7755 72.7557 96.5189 72.1984 95.3988 72.6278Z" fill="#504774"/>
</g>
<defs>
<clipPath id="clip0">
<rect width="111" height="111" fill="white"/>
</clipPath>
</defs>
</svg>
