<svg width="50" height="50" viewBox="0 0 50 50" fill="none" xmlns="http://www.w3.org/2000/svg">
<path d="M21.4561 8.1782H16.3576C15.8947 8.1782 15.5195 7.80298 15.5195 7.34015V4.8732C15.5195 4.41037 15.8947 4.03516 16.3576 4.03516H21.4561C21.9189 4.03516 22.2942 4.41037 22.2942 4.8732V7.34015C22.2942 7.80298 21.9189 8.1782 21.4561 8.1782Z" fill="#A0D1F2"/>
<path d="M21.4564 8.1782H20.3936V4.03516H21.4564C21.9192 4.03516 22.2944 4.41037 22.2944 4.8732V7.34015C22.2944 7.80298 21.9192 8.1782 21.4564 8.1782Z" fill="#7BABF3"/>
<path d="M45.7945 25.5674H4.99951V45.9649H45.7945V25.5674Z" fill="#8FD2CF"/>
<path d="M45.3973 25.5674H41.7871V45.9649H45.3973V25.5674Z" fill="#0E7D94"/>
<path d="M45.3979 46.6868H4.60289C4.20409 46.6868 3.88086 46.3636 3.88086 45.9648V25.5672C3.88086 25.1684 4.20409 24.8452 4.60289 24.8452H45.3979C45.7967 24.8452 46.1199 25.1684 46.1199 25.5672V45.9648C46.1199 46.3636 45.7967 46.6868 45.3979 46.6868ZM5.32493 45.2427H44.6759V26.2893H5.32493V45.2427Z" fill="#504774"/>
<path d="M35.4816 13.4373C32.5605 10.6697 27.3449 12.0794 25.5928 12.664C25.2077 12.7925 24.7926 12.7925 24.4075 12.664C22.6553 12.0794 17.4398 10.6697 14.5187 13.4373C9.73017 17.6455 13.116 23.9958 14.8641 26.6188C15.4217 27.4554 15.7264 28.4325 15.7584 29.4371C15.944 35.2452 17.113 40.7964 18.9072 40.7964C20.868 40.7964 21.0548 38.5554 21.0548 33.5537C21.0548 31.1758 21.9465 29.7623 22.882 28.9336C24.0826 27.8703 25.9172 27.8703 27.118 28.9336C28.0535 29.7623 28.9452 31.1758 28.9452 33.5537C28.9452 38.5552 29.132 40.7964 31.0928 40.7964C32.8871 40.7964 34.056 35.2452 34.2416 29.4371C34.2736 28.4323 34.5785 27.4554 35.136 26.6188C36.8842 23.9958 40.2701 17.6453 35.4816 13.4373Z" fill="white"/>
<path d="M35.4817 13.4369C33.867 11.9071 31.5519 11.6546 29.5078 11.8325C30.9107 11.9711 32.2893 12.4229 33.3594 13.4369C38.1479 17.6451 34.7621 23.9954 33.014 26.6184C32.4564 27.455 32.1517 28.4321 32.1194 29.4367C31.9668 34.2132 31.1488 38.8128 29.8652 40.2973C30.1668 40.6321 30.5651 40.796 31.0929 40.796C32.8872 40.796 34.0562 35.2448 34.2417 29.4367C34.2737 28.4319 34.5787 27.455 35.1361 26.6184C36.8844 23.9954 40.2702 17.6449 35.4817 13.4369Z" fill="#D5E6F7"/>
<path d="M31.0929 41.5182C28.2231 41.5182 28.2231 38.0033 28.2231 33.5534C28.2231 31.7774 27.6902 30.4046 26.6392 29.4737C26.1908 29.0765 25.6086 28.8578 24.9999 28.8578C24.3912 28.8578 23.8093 29.0765 23.3606 29.4737C22.3096 30.4046 21.7767 31.7772 21.7767 33.5534C21.7767 38.0033 21.7767 41.5182 18.9071 41.5182C15.5899 41.5182 15.101 31.4734 15.0365 29.4597C15.0084 28.5798 14.7407 27.7357 14.263 27.0187C12.4545 24.3053 8.81355 17.5009 14.0317 12.9032C15.3285 11.6803 17.1326 11.0601 19.394 11.0601C21.5601 11.0601 23.6078 11.6355 24.6358 11.9785C24.8714 12.0572 25.1282 12.0572 25.3641 11.9785C26.392 11.6355 28.4397 11.0601 30.6055 11.0601C32.867 11.0601 34.6713 11.6803 35.9679 12.9032C41.186 17.5011 37.545 24.3053 35.7368 27.0187C35.2588 27.7357 34.9912 28.5798 34.9633 29.4597C34.899 31.4734 34.41 41.5182 31.0929 41.5182ZM25.0001 27.4139C25.9619 27.4139 26.8839 27.7617 27.5968 28.393C28.5413 29.2296 29.6674 30.8041 29.6674 33.5536C29.6674 38.7335 29.9605 40.0743 31.0932 40.0743C31.8212 40.0743 33.2966 36.4131 33.5202 29.414C33.5567 28.2647 33.9079 27.1595 34.5356 26.2182C36.1344 23.8194 39.3807 17.8246 35.0052 13.9795C34.9984 13.9737 34.9917 13.9675 34.9852 13.9612C33.9649 12.9946 32.4917 12.5046 30.606 12.5046C28.6443 12.5046 26.7662 13.0336 25.8216 13.3487C25.2904 13.5258 24.7101 13.5258 24.179 13.3487C23.2343 13.0334 21.3563 12.5046 19.3945 12.5046C17.509 12.5046 16.0356 12.9949 15.0154 13.9612C15.0089 13.9675 15.0021 13.9735 14.9954 13.9795C10.6198 17.8248 13.8661 23.8194 15.4649 26.2185C16.0924 27.1598 16.4433 28.2647 16.4804 29.414C16.704 36.4131 18.1793 40.0743 18.9074 40.0743C20.04 40.0743 20.3329 38.7338 20.3329 33.5536C20.3329 30.8041 21.4588 29.2296 22.4035 28.393C23.1164 27.7617 24.0384 27.4139 25.0001 27.4139Z" fill="#504774"/>
<path d="M31.0931 41.5186C30.6943 41.5186 30.3711 41.1953 30.3711 40.7965V23.5375C30.3711 20.5759 27.9617 18.1667 25.0004 18.1667C22.0391 18.1667 19.6296 20.5759 19.6296 23.5375V40.7965C19.6296 41.1953 19.3064 41.5186 18.9076 41.5186C18.5088 41.5186 18.1855 41.1953 18.1855 40.7965V23.5375C18.1855 19.7798 21.2426 16.7227 25.0004 16.7227C28.7581 16.7227 31.8152 19.7798 31.8152 23.5375V40.7965C31.8152 41.1953 31.4919 41.5186 31.0931 41.5186Z" fill="#03426D"/>
<path d="M31.0925 41.5182C30.6937 41.5182 30.3704 41.195 30.3704 40.7962V27.1837C30.3704 25.3514 28.7444 23.7321 26.4163 23.2457C26.0259 23.1641 25.7756 22.7817 25.8572 22.3913C25.9386 22.0009 26.3205 21.7494 26.7116 21.8322C29.716 22.4599 31.8145 24.6606 31.8145 27.1837V40.7962C31.8145 41.195 31.4913 41.5182 31.0925 41.5182Z" fill="#504774"/>
<path d="M18.9076 41.5184C18.5088 41.5184 18.1855 41.1952 18.1855 40.7964V27.1839C18.1855 24.6608 20.2838 22.4601 23.2882 21.8324C23.6795 21.7506 24.0612 22.0011 24.1426 22.3915C24.2242 22.7819 23.9739 23.1643 23.5835 23.2459C21.2554 23.7323 19.6294 25.3518 19.6294 27.1839V40.7964C19.6296 41.1952 19.3064 41.5184 18.9076 41.5184Z" fill="#504774"/>
<path d="M21.4565 8.90059H16.3579C15.4977 8.90059 14.7979 8.20069 14.7979 7.34051V4.87355C14.7979 4.01337 15.4977 3.31348 16.3579 3.31348H21.4565C22.3166 3.31348 23.0165 4.01337 23.0165 4.87355V7.34051C23.0165 8.20069 22.3166 8.90059 21.4565 8.90059ZM16.3579 4.75755C16.2939 4.75755 16.2419 4.80953 16.2419 4.87355V7.34051C16.2419 7.40453 16.2939 7.45652 16.3579 7.45652H21.4565C21.5205 7.45652 21.5725 7.40453 21.5725 7.34051V4.87355C21.5725 4.80953 21.5205 4.75755 21.4565 4.75755H16.3579Z" fill="#504774"/>
<path d="M18.9076 30.4014C18.5088 30.4014 18.1855 30.0782 18.1855 29.6794V8.17858C18.1855 7.77977 18.5088 7.45654 18.9076 7.45654C19.3064 7.45654 19.6296 7.77977 19.6296 8.17858V29.6791C19.6296 30.0782 19.3064 30.4014 18.9076 30.4014Z" fill="#504774"/>
</svg>
