<svg width="50" height="37" viewBox="0 0 50 37" fill="none" xmlns="http://www.w3.org/2000/svg">
<path d="M17.3249 11.6041C17.1955 11.6057 17.0678 11.5744 16.9537 11.5134C16.7594 11.4144 16.6121 11.2426 16.5441 11.0355C16.4761 10.8283 16.4928 10.6027 16.5907 10.4079L18.4634 6.6541H17.3249C17.1843 6.65368 17.0461 6.61731 16.9235 6.54845C16.8009 6.47959 16.6979 6.38053 16.6243 6.26067C16.5508 6.14082 16.5091 6.00415 16.5032 5.86363C16.4973 5.72312 16.5274 5.58344 16.5907 5.45785L19.0657 0.507853C19.1093 0.403122 19.1741 0.308511 19.2559 0.229933C19.3377 0.151356 19.4349 0.090499 19.5413 0.0511673C19.6477 0.0118356 19.7611 -0.00512615 19.8743 0.00134202C19.9876 0.00781019 20.0983 0.0375695 20.1996 0.0887597C20.3008 0.13995 20.3904 0.211471 20.4628 0.298854C20.5351 0.386237 20.5887 0.487603 20.6201 0.596618C20.6515 0.705633 20.6601 0.819954 20.6453 0.932436C20.6305 1.04492 20.5927 1.15315 20.5342 1.25035L18.6614 5.0041H19.7999C19.9406 5.00453 20.0788 5.0409 20.2014 5.10976C20.324 5.17861 20.427 5.27767 20.5006 5.39753C20.5741 5.51739 20.6158 5.65406 20.6217 5.79457C20.6276 5.93508 20.5975 6.07476 20.5342 6.20035L18.0592 11.1504C17.9906 11.2864 17.8857 11.4008 17.7561 11.4809C17.6265 11.561 17.4773 11.6036 17.3249 11.6041Z" fill="#68C7D3"/>
<path d="M13.7612 11.0267C13.5882 11.0272 13.4195 10.9733 13.2789 10.8726C13.1382 10.7719 13.0328 10.6296 12.9774 10.4657L11.6492 6.48099L10.8242 7.30599C10.724 7.40497 10.6001 7.47664 10.4644 7.51419C10.3286 7.55174 10.1855 7.55391 10.0487 7.52049C9.91231 7.48885 9.78623 7.42302 9.68232 7.32921C9.5784 7.2354 9.50007 7.11668 9.45469 6.98424L7.73044 1.70424C7.69631 1.60132 7.68279 1.49268 7.69065 1.38453C7.69851 1.27638 7.72759 1.17084 7.77623 1.07393C7.87448 0.878212 8.04645 0.729537 8.25431 0.660614C8.46218 0.591691 8.68891 0.608165 8.88462 0.70641C9.08034 0.804656 9.22902 0.976626 9.29794 1.18449L10.6262 5.16924L11.4512 4.34424C11.5514 4.24526 11.6753 4.17359 11.811 4.13604C11.9468 4.09849 12.0899 4.09632 12.2267 4.12974C12.3631 4.16138 12.4891 4.22721 12.5931 4.32102C12.697 4.41483 12.7753 4.53355 12.8207 4.66599L14.5449 9.95424C14.6105 10.16 14.5928 10.3832 14.4956 10.576C14.3984 10.7688 14.2295 10.9158 14.0252 10.9855C13.9405 11.0153 13.851 11.0293 13.7612 11.0267Z" fill="#68C7D3"/>
<path d="M11.1374 13.6664C11.008 13.668 10.8803 13.6367 10.7662 13.5757L7.01244 11.7029V12.8414C7.01201 12.982 6.97564 13.1202 6.90678 13.2428C6.83793 13.3655 6.73886 13.4685 6.61901 13.542C6.49915 13.6156 6.36248 13.6573 6.22197 13.6632C6.08146 13.6691 5.94177 13.6389 5.81619 13.5757L0.866186 11.1007C0.769763 11.0492 0.68442 10.9792 0.61503 10.8948C0.54564 10.8104 0.493563 10.7131 0.46177 10.6085C0.429978 10.5039 0.419093 10.3941 0.429738 10.2853C0.440383 10.1766 0.472349 10.071 0.523811 9.97453C0.575273 9.8781 0.645222 9.79276 0.729666 9.72337C0.81411 9.65398 0.911395 9.6019 1.01597 9.57011C1.22715 9.5059 1.4552 9.52822 1.64994 9.63215L5.36244 11.5049V10.3664C5.3589 10.2199 5.39444 10.0751 5.46541 9.94693C5.53637 9.81873 5.6402 9.71174 5.76622 9.63697C5.89224 9.5622 6.0359 9.52235 6.18242 9.5215C6.32895 9.52065 6.47306 9.55884 6.59994 9.63215L11.5499 12.1072C11.6481 12.1596 11.7346 12.2313 11.8043 12.3181C11.8739 12.4048 11.9254 12.5048 11.9554 12.6119C11.9855 12.719 11.9935 12.8311 11.9792 12.9415C11.9648 13.0518 11.9282 13.1581 11.8717 13.2539C11.7976 13.3823 11.6904 13.4883 11.5612 13.5609C11.432 13.6335 11.2856 13.6699 11.1374 13.6664Z" fill="#68C7D3"/>
<path d="M31.35 18.534C31.3503 19.04 31.2638 19.5423 31.0942 20.019C30.914 20.5064 30.6548 20.9607 30.327 21.3638C29.694 22.1622 29.2638 23.102 29.073 24.1028C28.8337 25.2743 28.5367 26.7345 28.3222 27.7493C28.2512 28.0795 28.0692 28.3754 27.8065 28.5876C27.5437 28.7998 27.2162 28.9156 26.8785 28.9156C26.5407 28.9156 26.2132 28.7998 25.9505 28.5876C25.6878 28.3754 25.5057 28.0795 25.4347 27.7493L24.7912 25.134C24.7444 24.9396 24.6335 24.7665 24.4764 24.6427C24.3192 24.5189 24.125 24.4516 23.925 24.4516C23.7249 24.4516 23.5307 24.5189 23.3736 24.6427C23.2164 24.7665 23.1055 24.9396 23.0587 25.134L22.4152 27.7493C22.3442 28.0795 22.1622 28.3754 21.8995 28.5876C21.6367 28.7998 21.3092 28.9156 20.9715 28.9156C20.6337 28.9156 20.3062 28.7998 20.0435 28.5876C19.7808 28.3754 19.5987 28.0795 19.5277 27.7493C19.3132 26.7345 19.0162 25.2743 18.777 24.1028C18.6898 23.6919 18.5684 23.2889 18.414 22.8983C18.2051 22.0317 17.7254 21.2543 17.0445 20.679C16.9316 20.4781 16.8351 20.2684 16.7557 20.052C16.5395 19.4614 16.4523 18.8312 16.5 18.204V18.138C16.6004 17.1 17.0585 16.1291 17.796 15.3916C18.5335 14.6541 19.5044 14.196 20.5425 14.0955C21.1644 14.0461 21.79 14.1219 22.3822 14.3183C23.3702 14.6648 24.4467 14.6648 25.4347 14.3183C26.031 14.1141 26.6624 14.0327 27.291 14.079C28.3291 14.1795 29.3 14.6376 30.0374 15.3751C30.7749 16.1125 31.2331 17.0835 31.3335 18.1215V18.204C31.35 18.3113 31.35 18.4268 31.35 18.534Z" fill="#A1D8DF"/>
<path d="M17.5232 26.8338C16.771 27.7325 15.6951 28.2986 14.5284 28.4096C13.516 28.5213 12.5469 28.8812 11.7069 29.4573L8.59667 31.5033C8.31482 31.6858 7.97945 31.7674 7.64526 31.7348C7.31108 31.7021 6.99782 31.5572 6.7566 31.3236C6.51537 31.0901 6.36042 30.7816 6.31703 30.4487C6.27364 30.1157 6.34437 29.7779 6.51767 29.4903L7.92018 27.1886C8.0198 27.017 8.05992 26.8174 8.03428 26.6207C8.00865 26.424 7.9187 26.2413 7.77844 26.101C7.63818 25.9608 7.45548 25.8708 7.25879 25.8452C7.0621 25.8196 6.86245 25.8597 6.69092 25.9593L4.38917 27.3618C4.10159 27.5351 3.76375 27.6058 3.43079 27.5625C3.09784 27.5191 2.78941 27.3641 2.55585 27.1229C2.32228 26.8817 2.17736 26.5684 2.14473 26.2342C2.1121 25.9 2.19368 25.5647 2.37617 25.2828L3.20117 23.9793L4.38917 22.1726C4.96412 21.332 5.3239 20.3631 5.43692 19.3511C5.4998 18.9558 5.61349 18.5704 5.77517 18.2043C5.77517 18.0888 5.86592 17.9733 5.91542 17.8578C6.19354 17.2812 6.58988 16.7697 7.07867 16.3563C7.88243 15.6938 8.89159 15.3315 9.93318 15.3315C10.9748 15.3315 11.9839 15.6938 12.7877 16.3563C13.2637 16.7615 13.6536 17.2581 13.9344 17.8166C14.0004 17.9486 14.0664 18.0806 14.1407 18.2043C14.6038 18.975 15.2839 19.592 16.0959 19.9781C16.4259 20.1417 16.7337 20.3469 17.0117 20.5886L17.0777 20.6463C17.212 20.9014 17.3724 21.1419 17.5562 21.3641C17.9344 21.8239 18.2353 22.3422 18.4472 22.8986C18.6137 23.5809 18.6168 24.293 18.4562 24.9768C18.2957 25.6606 17.976 26.2968 17.5232 26.8338Z" fill="#A1D8DF"/>
<path d="M16.9788 20.5886C16.772 20.8448 16.5517 21.0899 16.3188 21.3228C15.4758 22.1654 14.4751 22.8337 13.3738 23.2895C12.2725 23.7453 11.0922 23.9797 9.90034 23.9793H9.34759C8.77822 23.9694 8.21756 23.8378 7.70323 23.5933C7.18891 23.3488 6.73283 22.9972 6.36558 22.562C5.99834 22.1268 5.72844 21.618 5.57399 21.0699C5.41954 20.5218 5.38411 19.947 5.47009 19.3841C5.51959 18.9791 5.62222 18.5824 5.77534 18.2043C5.77534 18.0888 5.86609 17.9733 5.91559 17.8578C6.19371 17.2812 6.59004 16.7697 7.07884 16.3563C7.88259 15.6938 8.89175 15.3315 9.93334 15.3315C10.9749 15.3315 11.9841 15.6938 12.7878 16.3563C13.2638 16.7615 13.6537 17.2581 13.9346 17.8166C14.0006 17.9486 14.0666 18.0806 14.1408 18.2043C14.6039 18.975 15.2841 19.592 16.0961 19.9781C16.4146 20.1441 16.7111 20.3492 16.9788 20.5886Z" fill="white"/>
<path d="M45.9443 20.0191C45.7641 20.5064 45.5049 20.9607 45.1771 21.3639C44.5441 22.1622 44.1139 23.102 43.9231 24.1029C43.6838 25.2744 43.3868 26.7346 43.1723 27.7493C43.1013 28.0795 42.9193 28.3754 42.6566 28.5877C42.3939 28.7999 42.0663 28.9157 41.7286 28.9157C41.3909 28.9157 41.0633 28.7999 40.8006 28.5877C40.5379 28.3754 40.3558 28.0795 40.2849 27.7493L39.6413 25.1341C39.5945 24.9396 39.4836 24.7665 39.3265 24.6428C39.1694 24.519 38.9751 24.4516 38.7751 24.4516C38.5751 24.4516 38.3808 24.519 38.2237 24.6428C38.0666 24.7665 37.9557 24.9396 37.9088 25.1341L37.2653 27.7493C37.1943 28.0795 37.0123 28.3754 36.7496 28.5877C36.4869 28.7999 36.1593 28.9157 35.8216 28.9157C35.4839 28.9157 35.1563 28.7999 34.8936 28.5877C34.6309 28.3754 34.4488 28.0795 34.3778 27.7493C34.1633 26.7346 33.8663 25.2744 33.6271 24.1029C33.5616 23.7799 33.4705 23.4627 33.3548 23.1541C33.1388 22.5028 32.8062 21.8961 32.3731 21.3639C32.0453 20.9607 31.7861 20.5064 31.6058 20.0191C31.4363 19.5424 31.3498 19.0401 31.3501 18.5341C31.3501 18.4269 31.3501 18.3114 31.3501 18.2041V18.1381C31.4505 17.1 31.9087 16.1291 32.6461 15.3916C33.3836 14.6542 34.3545 14.196 35.3926 14.0956H35.7638C36.2631 14.0945 36.7592 14.1753 37.2323 14.3349C38.2203 14.6814 39.2968 14.6814 40.2849 14.3349C40.7623 14.1679 41.2641 14.0815 41.7698 14.0791H42.1411C43.1803 14.1764 44.153 14.6336 44.891 15.3717C45.6291 16.1097 46.0863 17.0824 46.1836 18.1216V18.2041C46.2318 18.8192 46.1503 19.4375 45.9443 20.0191Z" fill="#A1D8DF"/>
<path d="M45.8123 16.7274C45.2446 18.5883 44.0937 20.2175 42.5296 21.3747C40.9654 22.5318 39.0708 23.1557 37.1251 23.1541H35.9206C35.2373 23.1391 34.5659 22.9722 33.9551 22.6654C33.3443 22.3585 32.8096 21.9196 32.3896 21.3803C32.0618 20.9772 31.8026 20.5229 31.6223 20.0356C31.4453 19.5547 31.3532 19.0466 31.3501 18.5341C31.3501 18.4269 31.3501 18.3114 31.3501 18.2041V18.1381C31.4505 17.1 31.9087 16.1291 32.6461 15.3916C33.3836 14.6542 34.3545 14.196 35.3926 14.0956H35.7638C36.2631 14.0945 36.7592 14.1753 37.2323 14.3349C38.2217 14.673 39.2954 14.673 40.2848 14.3349C40.7622 14.1679 41.2641 14.0815 41.7698 14.0791H42.1411C42.9323 14.1573 43.6887 14.4434 44.3335 14.9086C44.9783 15.3737 45.4886 16.0012 45.8123 16.7274Z" fill="white"/>
<path d="M30.9458 16.7274C30.3788 18.5856 29.2305 20.2129 27.6696 21.3698C26.1088 22.5267 24.2179 23.1521 22.275 23.1541H21.054C20.3707 23.1391 19.6993 22.9722 19.0886 22.6654C18.4778 22.3586 17.943 21.9196 17.523 21.3804C17.1953 20.9772 16.936 20.5229 16.7558 20.0356C16.5843 19.5537 16.4978 19.0456 16.5 18.5341C16.5 18.4269 16.5 18.3114 16.5 18.2041V18.1381C16.5968 17.0971 17.0534 16.1223 17.7912 15.3815C18.529 14.6407 19.5019 14.1801 20.5425 14.0791H20.9138C21.4131 14.078 21.9092 14.1588 22.3823 14.3184C23.3717 14.6565 24.4454 14.6565 25.4348 14.3184C25.9079 14.1588 26.404 14.078 26.9033 14.0791H27.2745C28.0658 14.1573 28.8222 14.4434 29.467 14.9086C30.1118 15.3737 30.622 16.0012 30.9458 16.7274Z" fill="white"/>
<path d="M48.6752 18.2041V20.6791C48.6752 24.6176 47.1106 28.3947 44.3257 31.1796C41.5408 33.9646 37.7637 35.5291 33.8252 35.5291H15.6752C11.7367 35.5291 7.95957 33.9646 5.17466 31.1796C2.38974 28.3947 0.825195 24.6176 0.825195 20.6791V18.2041H5.7752C5.63612 18.5732 5.54463 18.9586 5.50295 19.3509C5.38992 20.3629 5.03014 21.3318 4.4552 22.1724C3.7952 23.1789 2.9702 24.4164 2.4092 25.2826C2.23771 25.5618 2.16335 25.8898 2.19771 26.2156C2.23208 26.5415 2.37323 26.8468 2.59918 27.084C2.82513 27.3213 3.1232 27.4771 3.44696 27.5273C3.77072 27.5775 4.102 27.5193 4.3892 27.3616L6.69095 25.9591C6.86247 25.8595 7.06212 25.8194 7.25881 25.845C7.4555 25.8706 7.6382 25.9606 7.77846 26.1008C7.91872 26.2411 8.00867 26.4238 8.0343 26.6205C8.05994 26.8172 8.01982 27.0168 7.9202 27.1884L6.5177 29.4901C6.34439 29.7777 6.27366 30.1155 6.31705 30.4485C6.36044 30.7814 6.51539 31.0899 6.75662 31.3234C6.99784 31.557 7.3111 31.7019 7.64528 31.7345C7.97947 31.7672 8.31485 31.6856 8.5967 31.5031L11.7564 29.4241C12.6599 28.8613 13.6772 28.5062 14.7347 28.3846C15.1797 28.3161 15.6129 28.1856 16.0217 27.9969C16.5983 27.7187 17.1098 27.3224 17.5232 26.8336C17.9703 26.2937 18.284 25.6561 18.4388 24.9724C18.5936 24.2887 18.5851 23.5782 18.4142 22.8984C18.5686 23.289 18.6901 23.6919 18.7772 24.1029C19.0164 25.2744 19.3134 26.7346 19.5279 27.7494C19.5989 28.0795 19.781 28.3754 20.0437 28.5877C20.3064 28.7999 20.634 28.9157 20.9717 28.9157C21.3094 28.9157 21.637 28.7999 21.8997 28.5877C22.1624 28.3754 22.3444 28.0795 22.4154 27.7494L23.1002 25.1754C23.147 24.9809 23.2579 24.8078 23.4151 24.684C23.5722 24.5602 23.7664 24.4929 23.9664 24.4929C24.1665 24.4929 24.3607 24.5602 24.5178 24.684C24.675 24.8078 24.7859 24.9809 24.8327 25.1754L25.4762 27.7906C25.5472 28.1208 25.7292 28.4167 25.992 28.6289C26.2547 28.8411 26.5822 28.9569 26.9199 28.9569C27.2577 28.9569 27.5852 28.8411 27.8479 28.6289C28.1107 28.4167 28.2927 28.1208 28.3637 27.7906C28.5782 26.7759 28.8752 25.3156 29.1144 24.1441C29.3052 23.1433 29.7355 22.2035 30.3684 21.4051C30.6962 21.002 30.9555 20.5477 31.1357 20.0604C31.296 19.5681 31.3686 19.0515 31.3502 18.5341C31.3499 19.0401 31.4364 19.5424 31.6059 20.0191C31.7862 20.5064 32.0454 20.9607 32.3732 21.3639C33.0062 22.1622 33.4364 23.102 33.6272 24.1029C33.8664 25.2744 34.1634 26.7346 34.3779 27.7494C34.4489 28.0795 34.631 28.3754 34.8937 28.5877C35.1564 28.7999 35.484 28.9157 35.8217 28.9157C36.1594 28.9157 36.487 28.7999 36.7497 28.5877C37.0124 28.3754 37.1944 28.0795 37.2654 27.7494L37.9502 25.1754C37.997 24.9809 38.1079 24.8078 38.2651 24.684C38.4222 24.5602 38.6164 24.4929 38.8164 24.4929C39.0165 24.4929 39.2107 24.5602 39.3678 24.684C39.525 24.8078 39.6359 24.9809 39.6827 25.1754L40.3262 27.7906C40.3972 28.1208 40.5792 28.4167 40.842 28.6289C41.1047 28.8411 41.4322 28.9569 41.7699 28.9569C42.1077 28.9569 42.4352 28.8411 42.6979 28.6289C42.9607 28.4167 43.1427 28.1208 43.2137 27.7906C43.4282 26.7759 43.7252 25.3156 43.9644 24.1441C44.1552 23.1433 44.5855 22.2035 45.2184 21.4051C45.5462 21.002 45.8055 20.5477 45.9857 20.0604C46.1891 19.4641 46.2623 18.8311 46.2002 18.2041H48.6752Z" fill="#30ACC2"/>
<path d="M26.87 29.7539C26.351 29.7574 25.8464 29.5834 25.4398 29.2608C25.0332 28.9382 24.749 28.4864 24.6343 27.9802L23.9908 25.3732L23.0998 25.1752L23.9248 25.3732L23.2813 27.9884C23.1627 28.5044 22.868 28.9629 22.4479 29.2852C22.0278 29.6074 21.5086 29.7731 20.9795 29.7539C20.4491 29.7521 19.9354 29.5685 19.524 29.2337C19.1126 28.8989 18.8285 28.4332 18.719 27.9142C18.5293 27.0067 18.2653 25.7362 18.0425 24.6142L17.9683 24.2512C17.8931 23.8875 17.7854 23.5313 17.6465 23.1869V23.0797C17.5199 22.5486 17.2714 22.0543 16.9205 21.6359C16.8045 21.4993 16.6776 21.3724 16.541 21.2564C16.4702 21.1965 16.4114 21.1237 16.3678 21.0419C16.2283 20.8063 16.1122 20.5577 16.0213 20.2994C15.7539 19.6116 15.6358 18.8749 15.6748 18.1379C15.7052 17.7606 15.7743 17.3874 15.881 17.0242C15.9423 16.8141 16.0845 16.637 16.2763 16.5318C16.4682 16.4266 16.694 16.4019 16.904 16.4632C17.1141 16.5245 17.2912 16.6667 17.3964 16.8585C17.5016 17.0504 17.5263 17.2761 17.465 17.4862C17.3918 17.7195 17.3448 17.9602 17.3248 18.2039C17.2802 18.7258 17.3448 19.2512 17.5145 19.7467C17.5558 19.8539 17.6135 19.9942 17.6795 20.1262C17.841 20.2698 17.9926 20.4242 18.1333 20.5882C18.631 21.1865 18.9889 21.8883 19.181 22.6424C19.3453 23.0601 19.475 23.4905 19.5688 23.9294L19.643 24.3007C19.8658 25.3979 20.1298 26.6684 20.3195 27.6007C20.3488 27.7487 20.4285 27.882 20.5451 27.9778C20.6617 28.0737 20.808 28.126 20.9589 28.126C21.1098 28.126 21.256 28.0737 21.3726 27.9778C21.4892 27.882 21.569 27.7487 21.5983 27.6007L22.2748 24.9772C22.3772 24.6186 22.5936 24.3032 22.8914 24.0786C23.1891 23.854 23.5518 23.7325 23.9248 23.7325C24.2977 23.7325 24.6604 23.854 24.9582 24.0786C25.2559 24.3032 25.4723 24.6186 25.5748 24.9772L26.2183 27.5924C26.2475 27.7405 26.3273 27.8738 26.4439 27.9696C26.5605 28.0654 26.7067 28.1178 26.8576 28.1178C27.0085 28.1178 27.1548 28.0654 27.2714 27.9696C27.388 27.8738 27.4677 27.7405 27.497 27.5924C27.6868 26.6767 27.9508 25.4062 28.1735 24.2924L28.2478 23.9294C28.4724 22.7953 28.9709 21.7332 29.6998 20.8357C29.9703 20.5057 30.1824 20.1318 30.3268 19.7302C30.4637 19.3465 30.5308 18.9413 30.5248 18.5339C30.5248 18.4432 30.5248 18.3524 30.5248 18.2699V18.1379C30.4284 17.3024 30.048 16.5254 29.4473 15.9367C28.8466 15.348 28.062 14.9834 27.2248 14.9039C26.717 14.8561 26.205 14.918 25.7233 15.0854C24.5618 15.4936 23.2959 15.4936 22.1345 15.0854C21.6486 14.9239 21.1351 14.8622 20.6248 14.9039C20.0763 14.951 19.5471 15.1292 19.082 15.4237C18.9962 15.5143 18.891 15.5843 18.7743 15.6284C18.6576 15.6725 18.5324 15.6896 18.4081 15.6783C18.2838 15.667 18.1638 15.6277 18.0569 15.5633C17.95 15.4989 17.8592 15.411 17.7911 15.3064C17.7231 15.2018 17.6797 15.0832 17.6642 14.9593C17.6486 14.8355 17.6614 14.7098 17.7015 14.5917C17.7416 14.4735 17.8079 14.366 17.8956 14.2771C17.9832 14.1883 18.0899 14.1206 18.2075 14.0789C18.8944 13.6355 19.6729 13.3534 20.4845 13.2539C21.2208 13.1988 21.9607 13.2885 22.6625 13.5179C23.4771 13.8028 24.3642 13.8028 25.1788 13.5179C25.879 13.2817 26.6203 13.1918 27.3568 13.2539C28.5965 13.3631 29.7583 13.9047 30.6391 14.784C31.5198 15.6632 32.0634 16.8242 32.1748 18.0637V18.2039C32.1804 18.3139 32.1804 18.424 32.1748 18.5339C32.1766 19.1357 32.0733 19.7332 31.8695 20.2994C31.658 20.8746 31.3512 21.4101 30.962 21.8834C30.4162 22.5834 30.0457 23.4037 29.8813 24.2759L29.807 24.6307C29.5843 25.7362 29.3203 27.0067 29.1305 27.9307C29.0177 28.4466 28.7322 28.9086 28.3211 29.2401C27.9101 29.5717 27.3981 29.753 26.87 29.7539Z" fill="#03426D"/>
<path d="M18.414 23.7231C18.2478 23.7226 18.0856 23.672 17.9487 23.5778C17.8118 23.4836 17.7065 23.3502 17.6467 23.1951C17.4654 22.7227 17.2091 22.2826 16.8877 21.8916C16.6693 21.6357 16.476 21.3594 16.3102 21.0666C16.2212 20.8965 16.1944 20.7006 16.2344 20.5128C16.2743 20.325 16.3785 20.1569 16.529 20.0377C16.6795 19.9185 16.8669 19.8555 17.0589 19.8596C17.2509 19.8637 17.4354 19.9346 17.5807 20.0601C17.7826 20.2373 17.9728 20.4275 18.15 20.6294C18.6616 21.2427 19.0256 21.9653 19.2142 22.7414C19.2637 22.9446 19.2341 23.1591 19.1315 23.3413C19.0289 23.5236 18.8609 23.6601 18.6615 23.7231C18.5797 23.7389 18.4957 23.7389 18.414 23.7231Z" fill="#03426D"/>
<path d="M7.78829 32.5673C7.37562 32.5739 6.96871 32.4698 6.60988 32.2659C6.25105 32.062 5.95342 31.7657 5.74792 31.4077C5.54243 31.0498 5.43658 30.6433 5.4414 30.2307C5.44621 29.818 5.5615 29.4141 5.77529 29.061L7.18604 26.7593L6.65804 25.9343L7.08704 26.6355L4.81829 28.104C4.3664 28.4134 3.81903 28.5515 3.27447 28.4935C2.72992 28.4356 2.22387 28.1854 1.84721 27.7878C1.47055 27.3903 1.24797 26.8715 1.21944 26.3246C1.1909 25.7777 1.35829 25.2386 1.69154 24.804C2.02979 24.2843 2.46704 23.616 2.91254 22.9478L3.73754 21.6938C4.24704 20.9594 4.5621 20.1079 4.65329 19.2188C4.70401 18.7747 4.80361 18.3375 4.95029 17.9153C4.99154 17.7998 5.04929 17.676 5.09879 17.5523C5.43396 16.8511 5.91492 16.2295 6.50954 15.729C7.46487 14.9469 8.66149 14.5195 9.89616 14.5195C11.1308 14.5195 12.3275 14.9469 13.2828 15.729C13.8469 16.2106 14.3096 16.7995 14.644 17.4615C14.6953 17.5749 14.7531 17.685 14.8173 17.7915C15.1984 18.4207 15.7546 18.9253 16.4178 19.2435C16.8457 19.4654 17.2424 19.7428 17.5975 20.0685C17.6714 20.1372 17.7328 20.2182 17.779 20.3078C17.8869 20.5119 18.014 20.7053 18.1585 20.8853C18.5964 21.409 18.9423 22.0032 19.1815 22.6425C19.1851 22.6755 19.1851 22.7086 19.1815 22.7415C19.381 23.5388 19.3917 24.3715 19.2127 25.1736C19.0336 25.9756 18.6699 26.7248 18.1503 27.3615C17.6617 27.9375 17.0574 28.4041 16.3765 28.731C15.8199 28.9938 15.2231 29.1611 14.611 29.226C13.7236 29.3189 12.8732 29.6307 12.136 30.1335L9.07529 32.229C8.68856 32.4651 8.24113 32.5827 7.78829 32.5673ZM7.15304 25.002C7.45759 25.0045 7.75611 25.0872 8.01852 25.2418C8.28092 25.3964 8.49794 25.6174 8.64769 25.8826C8.79744 26.1478 8.87463 26.4478 8.87149 26.7524C8.86835 27.0569 8.78498 27.3552 8.62979 27.6173L7.21904 29.919C7.14143 30.048 7.10902 30.1991 7.12695 30.3485C7.14488 30.498 7.21212 30.6371 7.31804 30.744C7.42542 30.85 7.56586 30.916 7.71597 30.931C7.86608 30.946 8.0168 30.9091 8.14304 30.8265L11.2533 28.7723C12.2092 28.126 13.3076 27.7212 14.4543 27.5925C14.877 27.5634 15.2908 27.4571 15.6753 27.279C16.1444 27.052 16.5604 26.7287 16.8963 26.3303C17.2576 25.8947 17.5115 25.3803 17.6376 24.8286C17.7637 24.2769 17.7585 23.7033 17.6223 23.154C17.4461 22.6995 17.1982 22.2761 16.888 21.9C16.7037 21.6747 16.5382 21.4346 16.393 21.1823C16.1755 20.9856 15.9344 20.8165 15.6753 20.679C14.7247 20.2241 13.9276 19.5016 13.3818 18.6C13.2993 18.4515 13.225 18.303 13.1508 18.1545C12.9134 17.6921 12.5884 17.2802 12.1938 16.9418C11.5402 16.4055 10.721 16.1125 9.87554 16.1125C9.03013 16.1125 8.21086 16.4055 7.55729 16.9418C7.15232 17.2899 6.82609 17.7201 6.60029 18.204C6.60029 18.2865 6.52604 18.3773 6.49304 18.4763C6.37936 18.7853 6.30184 19.1065 6.26204 19.4333C6.14987 20.576 5.75584 21.6731 5.11529 22.626L4.29029 23.88C3.84479 24.54 3.40754 25.2083 3.06929 25.728C2.97921 25.8519 2.93564 26.0036 2.94625 26.1564C2.95685 26.3092 3.02094 26.4534 3.12727 26.5637C3.23361 26.674 3.37538 26.7433 3.52771 26.7594C3.68004 26.7756 3.8332 26.7376 3.96029 26.652L6.26204 25.2578C6.5285 25.0892 6.8377 25.0004 7.15304 25.002Z" fill="#03426D"/>
<path d="M18.414 23.7231C18.2478 23.7226 18.0856 23.672 17.9487 23.5778C17.8118 23.4836 17.7065 23.3502 17.6467 23.1951C17.4654 22.7227 17.2091 22.2826 16.8877 21.8916C16.6693 21.6357 16.476 21.3594 16.3102 21.0666C16.2212 20.8965 16.1944 20.7006 16.2344 20.5128C16.2743 20.325 16.3785 20.1569 16.529 20.0377C16.6795 19.9185 16.8669 19.8555 17.0589 19.8596C17.2509 19.8637 17.4354 19.9346 17.5807 20.0601C17.7826 20.2373 17.9728 20.4275 18.15 20.6294C18.6616 21.2427 19.0256 21.9653 19.2142 22.7414C19.2637 22.9446 19.2341 23.1591 19.1315 23.3413C19.0289 23.5236 18.8609 23.6601 18.6615 23.7231C18.5797 23.7389 18.4957 23.7389 18.414 23.7231Z" fill="#03426D"/>
<path d="M41.7202 29.7539C41.2011 29.7574 40.6965 29.5834 40.2899 29.2608C39.8833 28.9382 39.5991 28.4864 39.4844 27.9802L38.8409 25.3732C38.8241 25.3611 38.8039 25.3546 38.7832 25.3546C38.7624 25.3546 38.7422 25.3611 38.7254 25.3732L38.0654 28.0297C37.9411 28.5267 37.6527 28.9673 37.247 29.2802C36.8413 29.5931 36.342 29.76 35.8297 29.7539C35.2993 29.7521 34.7855 29.5685 34.3741 29.2337C33.9628 28.8989 33.6786 28.4332 33.5692 27.9142C33.3794 27.0067 33.1154 25.7362 32.8927 24.6142L32.8184 24.2512C32.6542 23.3839 32.2835 22.5689 31.7377 21.8752C31.3519 21.3994 31.0455 20.8646 30.8302 20.2912C30.6289 19.7272 30.5256 19.1328 30.5249 18.5339C30.5249 18.4102 30.5249 18.2699 30.5249 18.1379C30.6209 16.887 31.1565 15.7104 32.0368 14.8165C32.9171 13.9226 34.0854 13.3691 35.3347 13.2539C36.0709 13.1995 36.8107 13.2891 37.5127 13.5179C38.3272 13.8028 39.2143 13.8028 40.0289 13.5179C40.7292 13.2817 41.4705 13.1918 42.2069 13.2539C43.4466 13.3631 44.6085 13.9047 45.4892 14.784C46.37 15.6632 46.9136 16.8242 47.0249 18.0637V18.2039C47.078 18.9123 46.9796 19.6239 46.7362 20.2912C46.5265 20.8697 46.2196 21.4082 45.8287 21.8834C45.5846 22.1853 45.3769 22.5148 45.2099 22.8652C45.1136 23.0621 44.9431 23.2127 44.7357 23.2839C44.5284 23.3551 44.3013 23.341 44.1044 23.2447C43.9075 23.1484 43.7569 22.9779 43.6857 22.7705C43.6145 22.5632 43.6286 22.3361 43.7249 22.1392C43.9484 21.6742 44.2253 21.2367 44.5499 20.8357C44.8205 20.5057 45.0325 20.1318 45.1769 19.7302C45.3463 19.2631 45.4139 18.7652 45.3749 18.2699V18.1379C45.2785 17.3024 44.8981 16.5254 44.2975 15.9367C43.6968 15.348 42.9122 14.9834 42.0749 14.9039C41.5672 14.8561 41.0551 14.918 40.5734 15.0854C39.412 15.4936 38.1461 15.4936 36.9847 15.0854C36.4988 14.9239 35.9852 14.8622 35.4749 14.9039C34.6275 14.9861 33.8351 15.3601 33.2331 15.9621C32.6311 16.5641 32.257 17.3566 32.1749 18.2039C32.1749 18.3442 32.1749 18.4349 32.1749 18.5257C32.173 18.9388 32.2428 19.3492 32.3812 19.7384C32.5278 20.1373 32.7366 20.5104 32.9999 20.8439C33.721 21.7402 34.211 22.7996 34.4272 23.9294L34.5014 24.3007C34.7242 25.3979 34.9882 26.6684 35.1779 27.6007C35.2072 27.7487 35.2869 27.882 35.4035 27.9779C35.5201 28.0737 35.6664 28.126 35.8173 28.126C35.9682 28.126 36.1144 28.0737 36.231 27.9779C36.3476 27.882 36.4274 27.7487 36.4567 27.6007L37.1249 24.9772C37.1786 24.736 37.2859 24.51 37.4386 24.3158C37.5914 24.1216 37.7859 23.9642 38.0077 23.8552C38.2512 23.7393 38.5176 23.6792 38.7873 23.6792C39.057 23.6792 39.3233 23.7393 39.5669 23.8552C39.7826 23.9711 39.9708 24.132 40.1189 24.327C40.2669 24.522 40.3713 24.7466 40.4249 24.9854L41.0684 27.5924C41.0977 27.7405 41.1774 27.8738 41.294 27.9696C41.4106 28.0654 41.5569 28.1178 41.7078 28.1178C41.8587 28.1178 42.0049 28.0654 42.1215 27.9696C42.2381 27.8738 42.3179 27.7405 42.3472 27.5924L42.7844 25.4639C42.8282 25.2451 42.9571 25.0527 43.1427 24.9289C43.3284 24.8051 43.5556 24.7602 43.7744 24.8039C43.9932 24.8477 44.1857 24.9766 44.3094 25.1622C44.4332 25.3479 44.4782 25.5751 44.4344 25.7939L43.9972 27.9224C43.8854 28.4427 43.5982 28.9086 43.1836 29.2421C42.7689 29.5756 42.2522 29.7563 41.7202 29.7539Z" fill="#03426D"/>
<path d="M18.414 23.7231C18.2478 23.7226 18.0856 23.672 17.9487 23.5778C17.8118 23.4836 17.7065 23.3502 17.6467 23.1951C17.4654 22.7227 17.2091 22.2826 16.8877 21.8916C16.6693 21.6357 16.476 21.3594 16.3102 21.0666C16.2212 20.8965 16.1944 20.7006 16.2344 20.5128C16.2743 20.325 16.3785 20.1569 16.529 20.0377C16.6795 19.9185 16.8669 19.8555 17.0589 19.8596C17.2509 19.8637 17.4354 19.9346 17.5807 20.0601C17.7826 20.2373 17.9728 20.4275 18.15 20.6294C18.6572 21.2413 19.0184 21.9608 19.206 22.7331C19.2555 22.9364 19.2259 23.1508 19.1233 23.3331C19.0207 23.5153 18.8526 23.6518 18.6532 23.7149C18.5747 23.7324 18.4935 23.7352 18.414 23.7231Z" fill="#03426D"/>
<path d="M31.3502 19.3591C31.1314 19.3591 30.9215 19.2722 30.7668 19.1175C30.6121 18.9628 30.5252 18.753 30.5252 18.5341C30.5252 18.4434 30.5252 18.3526 30.5252 18.2701C30.5168 18.1559 30.5322 18.0411 30.5706 17.9332C30.6089 17.8252 30.6693 17.7265 30.7479 17.6431C30.8253 17.5581 30.9195 17.4901 31.0246 17.4436C31.1298 17.3971 31.2435 17.373 31.3584 17.373C31.4734 17.373 31.5871 17.3971 31.6922 17.4436C31.7974 17.4901 31.8916 17.5581 31.9689 17.6431C32.0505 17.7251 32.114 17.8232 32.1552 17.9312C32.1964 18.0392 32.2145 18.1547 32.2082 18.2701C32.2082 18.3526 32.2082 18.4434 32.2082 18.5341C32.2083 18.6453 32.1859 18.7554 32.1424 18.8577C32.0989 18.96 32.0351 19.0524 31.955 19.1295C31.8749 19.2065 31.78 19.2666 31.676 19.3061C31.5721 19.3455 31.4613 19.3636 31.3502 19.3591Z" fill="#03426D"/>
<path d="M33.8248 36.3539H32.9998C32.781 36.3539 32.5712 36.267 32.4164 36.1123C32.2617 35.9576 32.1748 35.7477 32.1748 35.5289C32.1748 35.3101 32.2617 35.1003 32.4164 34.9455C32.5712 34.7908 32.781 34.7039 32.9998 34.7039H33.8248C37.5445 34.7039 41.1118 33.2263 43.742 30.5961C46.3722 27.9659 47.8498 24.3986 47.8498 20.6789V19.0289H47.0248C46.9846 19.4597 46.8903 19.8838 46.7443 20.2912C46.5347 20.8697 46.2278 21.4082 45.8368 21.8834C45.5928 22.1853 45.3851 22.5148 45.2181 22.8652C45.1218 23.0621 44.9512 23.2127 44.7439 23.2839C44.5366 23.355 44.3095 23.3409 44.1126 23.2447C43.9156 23.1484 43.765 22.9778 43.6938 22.7705C43.6227 22.5632 43.6368 22.3361 43.7331 22.1392C43.9565 21.6741 44.2334 21.2367 44.5581 20.8357C44.8286 20.5057 45.0407 20.1318 45.1851 19.7302C45.3517 19.2625 45.4164 18.7646 45.3748 18.2699C45.3657 18.1562 45.3802 18.0417 45.4176 17.9339C45.4549 17.8261 45.5143 17.7271 45.5918 17.6434C45.6693 17.5597 45.7634 17.4929 45.8681 17.4474C45.9727 17.4019 46.0857 17.3785 46.1998 17.3789H48.6748C48.8936 17.3789 49.1034 17.4658 49.2582 17.6205C49.4129 17.7753 49.4998 17.9851 49.4998 18.2039V20.6789C49.4998 24.8362 47.8483 28.8232 44.9087 31.7628C41.9691 34.7024 37.9821 36.3539 33.8248 36.3539Z" fill="#03426D"/>
<path d="M25.575 36.3539H15.675C11.5177 36.3539 7.53073 34.7024 4.5911 31.7628C1.65147 28.8232 0 24.8362 0 20.6789V18.2039C0 17.9851 0.0869194 17.7753 0.241637 17.6205C0.396354 17.4658 0.606196 17.3789 0.825 17.3789H5.775C5.90801 17.3791 6.03899 17.4115 6.15678 17.4733C6.27457 17.535 6.37569 17.6244 6.4515 17.7337C6.52809 17.8428 6.57711 17.9688 6.59435 18.101C6.61159 18.2332 6.59655 18.3676 6.5505 18.4927C6.43621 18.7986 6.35866 19.1171 6.3195 19.4414C6.18872 20.5865 5.77476 21.6809 5.115 22.6259L4.29 23.8799C3.8445 24.5399 3.40725 25.2082 3.069 25.7279C2.97892 25.8518 2.93535 26.0035 2.94596 26.1563C2.95656 26.3091 3.02065 26.4533 3.12699 26.5636C3.23332 26.6739 3.37509 26.7431 3.52742 26.7593C3.67976 26.7754 3.83291 26.7374 3.96 26.6519L6.26175 25.2577C6.59095 25.0609 6.97636 24.9795 7.35702 25.0263C7.73768 25.0732 8.09186 25.2456 8.36352 25.5163C8.63519 25.787 8.80885 26.1406 8.85702 26.5211C8.90519 26.9016 8.82513 27.2873 8.6295 27.6172L7.21875 29.9189C7.14114 30.0478 7.10873 30.199 7.12666 30.3484C7.14459 30.4978 7.21183 30.637 7.31775 30.7439C7.42513 30.8499 7.56557 30.9159 7.71568 30.9309C7.86579 30.9459 8.01652 30.909 8.14275 30.8264L10.527 29.2507L11.3025 28.7392C12.3025 28.1112 13.4298 27.7139 14.6025 27.5759C14.9724 27.5289 15.3336 27.4289 15.675 27.2789C16.1441 27.0519 16.5601 26.7286 16.896 26.3302C17.2579 25.8901 17.5115 25.3711 17.6361 24.8151C17.7608 24.2591 17.7531 23.6816 17.6138 23.1292C17.5539 22.9235 17.5764 22.7026 17.6765 22.5132C17.7766 22.3239 17.9464 22.1808 18.15 22.1144C18.3494 22.0491 18.5662 22.0623 18.7562 22.1512C18.9463 22.2401 19.0953 22.398 19.173 22.5929C19.3466 23.0257 19.4819 23.4729 19.5772 23.9294L19.6515 24.3007C19.8743 25.3979 20.1382 26.6684 20.328 27.6007C20.3573 27.7487 20.437 27.882 20.5536 27.9778C20.6702 28.0736 20.8165 28.126 20.9674 28.126C21.1183 28.126 21.2645 28.0736 21.3811 27.9778C21.4977 27.882 21.5775 27.7487 21.6068 27.6007L22.275 24.9772C22.3774 24.6186 22.5939 24.3031 22.8916 24.0786C23.1893 23.854 23.5521 23.7325 23.925 23.7325C24.2979 23.7325 24.6607 23.854 24.9584 24.0786C25.2561 24.3031 25.4726 24.6186 25.575 24.9772L26.2185 27.5924C26.2478 27.7405 26.3275 27.8738 26.4441 27.9696C26.5607 28.0654 26.707 28.1178 26.8579 28.1178C27.0088 28.1178 27.155 28.0654 27.2716 27.9696C27.3882 27.8738 27.468 27.7405 27.4973 27.5924C27.687 26.6767 27.951 25.4062 28.1737 24.2924L28.248 23.9294C28.4727 22.7953 28.9712 21.7332 29.7 20.8357C29.9706 20.5057 30.1826 20.1318 30.327 19.7302C30.464 19.3465 30.5311 18.9413 30.525 18.5339C30.525 18.3151 30.6119 18.1053 30.7666 17.9505C30.9214 17.7958 31.1312 17.7089 31.35 17.7089C31.5688 17.7089 31.7786 17.7958 31.9334 17.9505C32.0881 18.1053 32.175 18.3151 32.175 18.5339C32.1731 18.947 32.2429 19.3574 32.3812 19.7467C32.5286 20.1426 32.7375 20.5129 33 20.8439C33.7211 21.7401 34.2111 22.7996 34.4272 23.9294L34.5015 24.3007C34.7243 25.3979 34.9883 26.6684 35.178 27.6007C35.2073 27.7487 35.287 27.882 35.4036 27.9778C35.5202 28.0736 35.6665 28.126 35.8174 28.126C35.9683 28.126 36.1145 28.0736 36.2311 27.9778C36.3477 27.882 36.4275 27.7487 36.4567 27.6007L37.125 24.9772C37.1787 24.736 37.286 24.5099 37.4387 24.3157C37.5915 24.1215 37.786 23.9641 38.0077 23.8552C38.2513 23.7393 38.5177 23.6792 38.7874 23.6792C39.0571 23.6792 39.3234 23.7393 39.567 23.8552C39.7827 23.971 39.9709 24.1319 40.1189 24.3269C40.267 24.522 40.3714 24.7465 40.425 24.9854L41.0685 27.5924C41.0978 27.7405 41.1775 27.8738 41.2941 27.9696C41.4107 28.0654 41.557 28.1178 41.7079 28.1178C41.8588 28.1178 42.005 28.0654 42.1216 27.9696C42.2382 27.8738 42.318 27.7405 42.3473 27.5924L42.7845 25.4639C42.8283 25.2451 42.9571 25.0526 43.1428 24.9289C43.3285 24.8051 43.5557 24.7601 43.7745 24.8039C43.9933 24.8477 44.1858 24.9766 44.3095 25.1622C44.4333 25.3479 44.4783 25.5751 44.4345 25.7939L43.9972 27.9224C43.8855 28.4426 43.5983 28.9086 43.1837 29.2421C42.769 29.5756 42.2523 29.7563 41.7202 29.7539C41.2012 29.7573 40.6966 29.5833 40.29 29.2608C39.8834 28.9382 39.5992 28.4864 39.4845 27.9802L38.841 25.3732C38.8242 25.3611 38.804 25.3546 38.7832 25.3546C38.7625 25.3546 38.7423 25.3611 38.7255 25.3732L38.0655 28.0297C37.9412 28.5267 37.6528 28.9672 37.2471 29.2801C36.8414 29.593 36.3421 29.7599 35.8298 29.7539C35.2994 29.7521 34.7856 29.5685 34.3742 29.2337C33.9629 28.8989 33.6787 28.4331 33.5692 27.9142C33.3795 27.0067 33.1155 25.7362 32.8927 24.6142L32.8185 24.2512C32.6543 23.3838 32.2836 22.5688 31.7378 21.8752C31.5985 21.7038 31.4691 21.5248 31.35 21.3389C31.2329 21.5235 31.1033 21.6999 30.9622 21.8669C30.4165 22.5669 30.0459 23.3872 29.8815 24.2594L29.8073 24.6142C29.5845 25.7197 29.3205 26.9902 29.1308 27.9142C29.0213 28.4331 28.7371 28.8989 28.3258 29.2337C27.9144 29.5685 27.4006 29.7521 26.8702 29.7539C26.3512 29.7573 25.8466 29.5833 25.44 29.2608C25.0334 28.9382 24.7492 28.4864 24.6345 27.9802L23.991 25.3732C23.991 25.3557 23.984 25.3389 23.9717 25.3265C23.9593 25.3141 23.9425 25.3072 23.925 25.3072C23.9075 25.3072 23.8907 25.3141 23.8783 25.3265C23.866 25.3389 23.859 25.3557 23.859 25.3732L23.2155 27.9884C23.0992 28.4931 22.8143 28.943 22.4078 29.264C22.0014 29.5849 21.4976 29.7578 20.9797 29.7539C20.4494 29.7521 19.9356 29.5685 19.5242 29.2337C19.1129 28.8989 18.8287 28.4331 18.7192 27.9142C18.6532 27.6089 18.579 27.2624 18.5047 26.8912C18.3985 27.0566 18.2799 27.2138 18.15 27.3614C17.664 27.9422 17.0592 28.412 16.3762 28.7392C15.8939 28.9623 15.3831 29.1177 14.8582 29.2012C13.9169 29.299 13.0107 29.6124 12.21 30.1169L11.4427 30.6202L9.075 32.2289C8.82529 32.3955 8.54479 32.5105 8.25 32.5672C10.473 33.9676 13.0477 34.7085 15.675 34.7039H25.575C25.7938 34.7039 26.0036 34.7908 26.1584 34.9455C26.3131 35.1003 26.4 35.3101 26.4 35.5289C26.4 35.7477 26.3131 35.9576 26.1584 36.1123C26.0036 36.267 25.7938 36.3539 25.575 36.3539ZM3.96 28.3762C4.40735 29.0611 4.9154 29.7045 5.478 30.2984C5.46916 29.863 5.58356 29.4341 5.808 29.0609L7.21875 26.7592L6.69075 25.9342L7.11975 26.6354L4.818 28.1039C4.55323 28.2515 4.26141 28.3441 3.96 28.3762ZM1.65 19.0289V20.6789C1.65068 21.8672 1.80034 23.0506 2.0955 24.2017L2.9205 22.9724L3.7455 21.7184C4.255 20.984 4.57006 20.1325 4.66125 19.2434C4.66125 19.1609 4.66125 19.0784 4.66125 18.9959L1.65 19.0289Z" fill="#03426D"/>
<path d="M29.6998 36.3541H28.8748C28.656 36.3541 28.4462 36.2672 28.2914 36.1125C28.1367 35.9577 28.0498 35.7479 28.0498 35.5291C28.0498 35.3103 28.1367 35.1005 28.2914 34.9457C28.4462 34.791 28.656 34.7041 28.8748 34.7041H29.6998C29.9186 34.7041 30.1285 34.791 30.2832 34.9457C30.4379 35.1005 30.5248 35.3103 30.5248 35.5291C30.5248 35.7479 30.4379 35.9577 30.2832 36.1125C30.1285 36.2672 29.9186 36.3541 29.6998 36.3541Z" fill="#03426D"/>
</svg>
